<svg width="36" height="36" viewBox="0 0 36 36" fill="none" xmlns="http://www.w3.org/2000/svg">
<path d="M19.9104 13.0581C20.6586 13.2038 21.3462 13.569 21.8852 14.107C22.4242 14.6449 22.7901 15.3312 22.9361 16.0779M19.9104 10C21.4648 10.1724 22.9143 10.8671 24.0209 11.9702C25.1275 13.0733 25.8254 14.5191 26 16.0703M25.234 22.1712V24.4648C25.2349 24.6777 25.1912 24.8884 25.1057 25.0835C25.0203 25.2786 24.8949 25.4537 24.7377 25.5977C24.5805 25.7416 24.3949 25.8512 24.1928 25.9194C23.9908 25.9876 23.7766 26.013 23.5642 25.9938C21.2071 25.7382 18.943 24.9343 16.9537 23.6467C15.103 22.4729 13.5338 20.9068 12.3578 19.0596C11.0633 17.0651 10.2576 14.7943 10.0062 12.4312C9.98708 12.2198 10.0122 12.0067 10.0801 11.8055C10.148 11.6043 10.2571 11.4195 10.4005 11.2627C10.5439 11.1059 10.7184 10.9807 10.913 10.8949C11.1075 10.8091 11.3178 10.7647 11.5305 10.7645H13.8285C14.2002 10.7609 14.5606 10.8923 14.8425 11.1342C15.1243 11.3761 15.3084 11.7121 15.3605 12.0795C15.4574 12.8135 15.6373 13.5342 15.8966 14.2278C15.9997 14.5014 16.022 14.7988 15.9609 15.0847C15.8998 15.3706 15.7579 15.6331 15.552 15.8409L14.5792 16.8119C15.6696 18.7259 17.2574 20.3107 19.1751 21.399L20.1479 20.4281C20.3561 20.2225 20.6191 20.0809 20.9055 20.0199C21.192 19.9589 21.4899 19.9812 21.7641 20.084C22.4591 20.3429 23.1811 20.5224 23.9165 20.6192C24.2886 20.6716 24.6284 20.8587 24.8713 21.1448C25.1143 21.431 25.2433 21.7962 25.234 22.1712Z" stroke="white" stroke-width="1.45455" stroke-linecap="round" stroke-linejoin="round"/>
<circle cx="18" cy="18" r="17.25" stroke="white" stroke-width="1.5"/>
</svg>
