<svg width="437" height="19" viewBox="0 0 437 19" fill="none" xmlns="http://www.w3.org/2000/svg">
<path d="M27.6083 0H2.36643C1.02545 0 0 1.02917 0 2.375V16.625C0 17.9708 1.10433 19 2.36643 19H27.6083C28.9493 19 29.9747 17.9708 29.9747 16.625V2.375C29.9747 1.02917 28.8704 0 27.6083 0Z" fill="#353333"/>
<path d="M27.6083 0.791667C28.476 0.791667 29.1859 1.50417 29.1859 2.375V16.625C29.1859 17.4958 28.476 18.2083 27.6083 18.2083H2.36643C1.49874 18.2083 0.788809 17.4958 0.788809 16.625V2.375C0.788809 1.50417 1.49874 0.791667 2.36643 0.791667H27.6083Z" fill="#006FCF"/>
<path d="M7.0764 8.12883L7.68694 9.614H6.4706L7.0764 8.12883ZM19.7565 8.19058H17.4082V8.84529H19.7186V9.82617H17.413V10.5561H19.7612V11.1411L21.3996 9.36383L19.7612 7.51133L19.7565 8.19058ZM8.66349 6.33808H11.8148L12.5144 7.86996L13.1629 6.33333H21.3428L22.1931 7.27542L23.0727 6.33333H26.8297L24.0539 9.38283L26.8014 12.4133H22.9883L22.1379 11.4712L21.2505 12.4133H7.91175L7.52208 11.4712H6.63073L6.24026 12.4133H3.15523L5.74726 6.33333H8.45287L8.66349 6.33808ZM15.4969 7.1915H13.7308L12.5476 9.99083L11.2658 7.1915H9.51303V10.9994L7.88809 7.1915H6.31599L4.43705 11.5552H5.66365L6.05332 10.6131H8.10106L8.49074 11.5552H10.6363V8.43996L12.0175 11.5599H12.9562L14.3287 8.44946V11.5607H15.4788L15.4977 7.19071L15.4969 7.1915ZM22.8644 9.38283L24.8609 7.1915H23.4237L22.1608 8.55792L20.9397 7.1915H16.2905V11.5599H20.8735L22.1466 10.184L23.3677 11.5599H24.8467L22.8644 9.38283Z" fill="white"/>
<path d="M61.0437 2.93326e-07H36.7686C36.6675 2.93326e-07 36.5662 2.93367e-07 36.4653 0.000538207C36.38 0.00125542 36.295 0.00215195 36.2098 0.0044829C36.0242 0.00950343 35.8369 0.0206203 35.6536 0.0536123C35.4698 0.0852218 35.2917 0.144143 35.1251 0.228434C34.7904 0.399325 34.5183 0.672422 34.348 1.00841C34.2639 1.1756 34.2051 1.3545 34.1738 1.53915C34.1406 1.7233 34.1297 1.91103 34.1247 2.09715C34.1225 2.1826 34.1212 2.26807 34.1207 2.35355C34.1204 2.45468 34.1204 2.55616 34.1204 2.65783V16.342C34.1204 16.4437 34.1204 16.545 34.1207 16.6466C34.1213 16.732 34.1223 16.8175 34.1247 16.903C34.1297 17.0888 34.1407 17.2767 34.1738 17.4607C34.2051 17.6453 34.2637 17.8242 34.3478 17.9914C34.4323 18.1584 34.5427 18.3109 34.6748 18.4433C34.8066 18.5758 34.9585 18.6866 35.125 18.7714C35.2942 18.858 35.4675 18.913 35.6538 18.9466C35.8369 18.9794 36.0242 18.9905 36.2098 18.9955C36.295 18.9975 36.38 18.9986 36.4653 18.9991C36.5662 18.9998 36.6675 18.9998 36.7686 18.9998H61.0437C61.1446 18.9998 61.2459 18.9998 61.3468 18.9991C61.4319 18.9987 61.5169 18.9975 61.6025 18.9955C61.7878 18.9905 61.975 18.9794 62.1587 18.9466C62.3425 18.9149 62.5207 18.8559 62.6871 18.7714C63.0217 18.6003 63.2938 18.3272 63.4643 17.9914C63.5506 17.8216 63.6052 17.6477 63.6383 17.4607C63.6715 17.2767 63.6822 17.0888 63.6872 16.903C63.6896 16.8175 63.6908 16.732 63.6912 16.6466C63.6919 16.545 63.6919 16.4437 63.6919 16.342V2.65801C63.6919 2.55634 63.6919 2.45486 63.6912 2.35337C63.6908 2.26795 63.6895 2.18254 63.6872 2.09715C63.6822 1.91103 63.6715 1.7233 63.6383 1.53915C63.6072 1.35447 63.5485 1.17555 63.4643 1.00841C63.2939 0.67248 63.0218 0.399406 62.6871 0.228434C62.5206 0.144229 62.3425 0.0853703 62.1587 0.0537916C61.975 0.0206203 61.7878 0.00968273 61.6025 0.00466221C61.5173 0.00249034 61.4321 0.00117538 61.3468 0.000717511C61.2459 2.93367e-07 61.1446 2.93326e-07 61.0437 2.93326e-07Z" fill="#353333"/>
<path d="M61.0437 0.633304L61.3424 0.633842C61.4231 0.63438 61.5041 0.635276 61.5853 0.637428C61.727 0.641372 61.8925 0.649082 62.0468 0.676875C62.1808 0.701081 62.2934 0.737838 62.4013 0.793064C62.6172 0.903257 62.7927 1.07952 62.9022 1.29637C62.9569 1.40395 62.9933 1.5162 63.0175 1.65193C63.045 1.80506 63.0527 1.97163 63.0564 2.11454C63.0587 2.19523 63.0598 2.27591 63.06 2.35839C63.0609 2.45826 63.0609 2.55796 63.0609 2.65801V16.3422C63.0609 16.4422 63.0609 16.5419 63.0602 16.6438C63.0598 16.7244 63.0587 16.8051 63.0566 16.8858C63.0527 17.0285 63.045 17.1951 63.0171 17.35C62.9968 17.4733 62.958 17.5927 62.9019 17.7042C62.7921 17.9211 62.6164 18.0974 62.4002 18.2075C62.293 18.2623 62.1808 18.2991 62.0481 18.3231C61.8907 18.3513 61.7181 18.359 61.5882 18.3626C61.5066 18.3644 61.4253 18.3656 61.3418 18.366C61.2427 18.3667 61.143 18.3667 61.0437 18.3667H36.7647C36.6664 18.3667 36.5682 18.3667 36.4681 18.366C36.3877 18.3656 36.3073 18.3646 36.2269 18.3628C36.094 18.3592 35.9214 18.3513 35.7653 18.3233C35.6418 18.3027 35.5222 18.2634 35.4105 18.2068C35.3033 18.1521 35.2055 18.0807 35.1207 17.9952C35.0356 17.91 34.9646 17.8117 34.9102 17.7042C34.8541 17.5921 34.8152 17.472 34.7948 17.3482C34.7669 17.1935 34.7591 17.0277 34.7555 16.886C34.7535 16.805 34.7523 16.724 34.7519 16.643L34.7514 16.4051V2.59525L34.7518 2.35768C34.7521 2.27656 34.7533 2.19545 34.7553 2.11436C34.7593 1.97235 34.7669 1.80649 34.795 1.6505C34.8154 1.52693 34.8543 1.40718 34.9104 1.2953C34.9647 1.18807 35.0355 1.09017 35.1212 1.00428C35.2062 0.918848 35.3041 0.847439 35.4114 0.792705C35.5228 0.736507 35.6421 0.69746 35.7651 0.676875C35.9196 0.649082 36.0853 0.641372 36.2271 0.637428C36.3079 0.635276 36.3888 0.63438 36.469 0.633842L36.7686 0.633304H61.0437Z" fill="white"/>
<path d="M41.8934 6.41372C42.1442 6.09904 42.3143 5.67642 42.2695 5.24466C41.9025 5.26295 41.4548 5.48761 41.1954 5.80265C40.9626 6.07233 40.7566 6.51252 40.8102 6.92617C41.2222 6.96203 41.6338 6.71961 41.8934 6.41372Z" fill="#353333"/>
<path d="M42.2648 7.00704C41.6663 6.97118 41.1579 7.34772 40.8722 7.34772C40.5863 7.34772 40.1488 7.02497 39.6755 7.03376C39.0597 7.04272 38.4884 7.39236 38.1757 7.94821C37.5329 9.0599 38.006 10.7095 38.6313 11.615C38.9348 12.0632 39.3007 12.5563 39.7827 12.5386C40.2383 12.5207 40.4168 12.2427 40.9703 12.2427C41.5236 12.2427 41.6844 12.5386 42.1666 12.5296C42.6664 12.5207 42.9791 12.0814 43.2826 11.6331C43.631 11.1221 43.7734 10.629 43.7823 10.6021C43.7734 10.5931 42.8183 10.2254 42.8094 9.12265C42.8004 8.19923 43.5594 7.75994 43.5951 7.73286C43.1665 7.09669 42.4971 7.02497 42.2648 7.00704Z" fill="#353333"/>
<path d="M48.2295 5.75747C49.5297 5.75747 50.4354 6.65704 50.4354 7.96668C50.4354 9.28098 49.5112 10.1852 48.197 10.1852H46.7573V12.4832H45.7172V5.75747H48.2295ZM46.7573 9.30895H47.9508C48.8566 9.30895 49.3718 8.81963 49.3718 7.97134C49.3718 7.12323 48.8564 6.63839 47.9554 6.63839H46.7573V9.30895Z" fill="#353333"/>
<path d="M50.6933 11.0894C50.6933 10.2272 51.3481 9.73318 52.5555 9.65859L53.8511 9.57934V9.20639C53.8511 8.6613 53.4936 8.36294 52.8574 8.36294C52.3325 8.36294 51.9516 8.63315 51.873 9.04788H50.9347C50.9627 8.17646 51.7799 7.54262 52.8853 7.54262C54.0741 7.54262 54.8496 8.16714 54.8496 9.13664V12.483H53.8884V11.6767H53.8652C53.5911 12.2033 52.9873 12.5341 52.3325 12.5341C51.3667 12.5341 50.6933 11.9564 50.6933 11.0894ZM53.8511 10.6561V10.2784L52.6948 10.353C52.0445 10.395 51.7058 10.6372 51.7058 11.0613C51.7058 11.4715 52.0586 11.7373 52.6112 11.7373C53.3169 11.7373 53.8511 11.2851 53.8511 10.6561Z" fill="#353333"/>
<path d="M55.7334 14.282V13.4758C55.7985 13.485 55.9562 13.4943 56.0398 13.4943C56.4995 13.4943 56.7596 13.2988 56.9176 12.7952L57.0105 12.497L55.2503 7.60323H56.3369L57.5631 11.5741H57.5863L58.8122 7.60323H59.8711L58.046 12.7439C57.6279 13.9232 57.1496 14.3101 56.1374 14.3101C56.0584 14.3101 55.8029 14.3008 55.7334 14.282Z" fill="#353333"/>
<path d="M95.4458 0H70.204C68.863 0 67.8375 1.02917 67.8375 2.375V16.625C67.8375 17.9708 68.9419 19 70.204 19H95.4458C96.7868 19 97.8123 17.9708 97.8123 16.625V2.375C97.8123 1.02917 96.7079 0 95.4458 0Z" fill="#353333"/>
<path d="M95.4458 0.791667C96.3135 0.791667 97.0235 1.50417 97.0235 2.375V16.625C97.0235 17.4958 96.3135 18.2083 95.4458 18.2083H70.204C69.3363 18.2083 68.6264 17.4958 68.6264 16.625V2.375C68.6264 1.50417 69.3363 0.791667 70.204 0.791667H95.4458Z" fill="white"/>
<path d="M77.3032 12.4292C77.3032 12.6667 77.1455 12.6667 76.9088 12.5875C75.4101 11.9542 74.5424 9.975 75.0946 8.3125C75.4101 7.44167 76.0412 6.72917 76.9088 6.4125C77.2244 6.25417 77.3032 6.33333 77.3032 6.57083V12.4292ZM78.8809 6.57083C78.8809 6.33333 78.8809 6.33333 79.1175 6.4125C80.774 7.04583 81.6417 9.025 81.0106 10.6875C80.6951 11.5583 80.0641 12.2708 79.1964 12.5875C78.8809 12.7458 78.8809 12.6667 78.8809 12.4292V6.57083ZM84.5603 3.95833H78.0921C81.0895 3.95833 83.456 6.4125 83.456 9.5C83.456 12.5875 81.0895 15.0417 78.0921 15.0417H84.5603C87.5578 15.0417 89.9242 12.5875 89.9242 9.5C89.9242 6.4125 87.5578 3.95833 84.5603 3.95833Z" fill="#3086C8"/>
<path d="M163.283 0H138.042C136.701 0 135.675 1.02917 135.675 2.375V16.625C135.675 17.9708 136.779 19 138.042 19H163.283C164.624 19 165.65 17.9708 165.65 16.625V2.375C165.65 1.02917 164.545 0 163.283 0Z" fill="#353333"/>
<path d="M163.283 0.791667C164.151 0.791667 164.861 1.50417 164.861 2.375V16.625C164.861 17.4958 164.151 18.2083 163.283 18.2083H138.042C137.174 18.2083 136.464 17.4958 136.464 16.625V2.375C136.464 1.50417 137.174 0.791667 138.042 0.791667H163.283Z" fill="white"/>
<path d="M146.166 12.2708C145.693 12.7458 145.062 12.9833 144.352 12.9833C143.879 12.9833 143.405 12.825 143.09 12.5875L142.143 14.0917C142.774 14.5667 143.563 14.8042 144.352 14.8042C145.535 14.8042 146.64 14.3292 147.428 13.5375L146.166 12.2708ZM144.51 6.175C142.143 6.175 140.171 8.075 140.171 10.45C140.171 11.3208 140.408 12.1917 140.881 12.9042L148.612 9.57917C148.138 7.6 146.482 6.175 144.51 6.175ZM141.907 10.7667V10.45C141.907 9.025 143.09 7.91667 144.431 7.91667C145.22 7.91667 145.851 8.3125 146.324 8.7875L141.907 10.7667ZM151.057 4.19583V12.5083L152.477 13.1417L151.767 14.8042L150.347 14.1708C150.031 14.0125 149.795 13.8542 149.637 13.6167C149.479 13.3792 149.4 13.0625 149.4 12.5875V4.19583H151.057ZM156.184 8.075C156.421 7.99583 156.736 7.91667 156.973 7.91667C158.156 7.91667 159.182 8.7875 159.418 9.975L161.154 9.65833C160.759 7.67917 159.024 6.175 156.973 6.175C156.5 6.175 156.026 6.25417 155.632 6.4125L156.184 8.075ZM154.133 13.6958L155.316 12.35C154.764 11.875 154.449 11.2417 154.449 10.45C154.449 9.65833 154.764 9.025 155.316 8.55L154.133 7.20417C153.266 7.99583 152.713 9.18333 152.713 10.45C152.713 11.7958 153.266 12.9042 154.133 13.6958ZM159.418 11.0042C159.182 12.1917 158.156 13.0625 156.973 13.0625C156.657 13.0625 156.421 12.9833 156.184 12.9042L155.632 14.5667C156.026 14.725 156.5 14.8042 156.973 14.8042C159.024 14.8042 160.759 13.3 161.154 11.3208L159.418 11.0042Z" fill="#353333"/>
<path d="M129.365 0H104.123C102.782 0 101.756 1.02917 101.756 2.375V16.625C101.756 17.9708 102.861 19 104.123 19H129.365C130.706 19 131.731 17.9708 131.731 16.625V2.375C131.731 1.02917 130.627 0 129.365 0Z" fill="#353333"/>
<path d="M129.365 0.791667C130.232 0.791667 130.942 1.50417 130.942 2.375V16.625C130.942 17.4958 130.232 18.2083 129.365 18.2083H104.123C103.255 18.2083 102.545 17.4958 102.545 16.625V2.375C102.545 1.50417 103.255 0.791667 104.123 0.791667H129.365Z" fill="white"/>
<path d="M104.572 5.66833H103.334V10.0225H104.572C105.227 10.0225 105.7 9.86417 106.118 9.52375C106.615 9.11208 106.907 8.49458 106.907 7.85333C106.899 6.56292 105.945 5.66833 104.572 5.66833ZM105.566 8.94583C105.298 9.18333 104.959 9.29417 104.407 9.29417H104.178V6.4125H104.407C104.951 6.4125 105.282 6.5075 105.566 6.76083C105.858 7.02208 106.032 7.42583 106.032 7.84542C106.032 8.265 105.858 8.68458 105.566 8.94583ZM107.294 5.66833H108.138V10.0225H107.294V5.66833ZM110.204 7.33875C109.7 7.14875 109.55 7.02208 109.55 6.7925C109.55 6.51542 109.818 6.30958 110.181 6.30958C110.433 6.30958 110.646 6.4125 110.859 6.66583L111.301 6.08792C110.938 5.77125 110.504 5.605 110.023 5.605C109.258 5.605 108.666 6.14333 108.666 6.85583C108.666 7.4575 108.942 7.76625 109.731 8.05125C110.062 8.17 110.228 8.24917 110.315 8.29667C110.481 8.4075 110.567 8.56583 110.567 8.74792C110.567 9.10417 110.291 9.36542 109.913 9.36542C109.51 9.36542 109.187 9.15958 108.99 8.7875L108.445 9.31792C108.832 9.89583 109.305 10.1492 109.944 10.1492C110.82 10.1492 111.443 9.56333 111.443 8.71625C111.459 8.01167 111.167 7.695 110.204 7.33875ZM111.719 7.85333C111.719 9.13583 112.721 10.1254 114.007 10.1254C114.369 10.1254 114.685 10.0542 115.064 9.87208V8.87458C114.724 9.215 114.425 9.34958 114.046 9.34958C113.194 9.34958 112.587 8.73208 112.587 7.84542C112.587 7.00625 113.21 6.34917 114.007 6.34917C114.409 6.34917 114.716 6.49167 115.064 6.84V5.8425C114.693 5.6525 114.385 5.57333 114.022 5.57333C112.752 5.57333 111.719 6.58667 111.719 7.85333ZM121.784 8.5975L120.625 5.66833H119.702L121.54 10.1333H121.997L123.867 5.66833H122.952L121.784 8.5975ZM124.253 10.0225H126.651V9.28625H125.097V8.11458H126.596V7.37833H125.097V6.4125H126.651V5.66833H124.253V10.0225ZM130.004 6.95875C130.004 6.14333 129.443 5.67625 128.465 5.67625H127.211V10.0304H128.055V8.28083H128.166L129.333 10.0304H130.374L129.01 8.19375C129.649 8.05917 130.004 7.62375 130.004 6.95875ZM128.3 7.67917H128.055V6.35708H128.316C128.844 6.35708 129.128 6.57875 129.128 7.00625C129.128 7.44167 128.844 7.67917 128.3 7.67917Z" fill="#353333"/>
<path d="M117.659 10.1808C118.272 10.1808 118.86 9.93637 119.294 9.50121C119.727 9.06606 119.971 8.47586 119.971 7.86046C119.971 7.24506 119.727 6.65486 119.294 6.2197C118.86 5.78455 118.272 5.54008 117.659 5.54008C117.046 5.54008 116.457 5.78455 116.024 6.2197C115.59 6.65486 115.347 7.24506 115.347 7.86046C115.347 8.47586 115.59 9.06606 116.024 9.50121C116.457 9.93637 117.046 10.1808 117.659 10.1808Z" fill="url(#paint0_linear_14_283)"/>
<path d="M117.659 10.1808C118.272 10.1808 118.86 9.93637 119.294 9.50121C119.727 9.06606 119.971 8.47586 119.971 7.86046C119.971 7.24506 119.727 6.65486 119.294 6.2197C118.86 5.78455 118.272 5.54008 117.659 5.54008C117.046 5.54008 116.457 5.78455 116.024 6.2197C115.59 6.65486 115.347 7.24506 115.347 7.86046C115.347 8.47586 115.59 9.06606 116.024 9.50121C116.457 9.93637 117.046 10.1808 117.659 10.1808Z" fill="url(#paint1_linear_14_283)"/>
<path d="M130.603 5.94225C130.603 5.86308 130.548 5.8235 130.461 5.8235H130.335V6.2035H130.43V6.05308L130.54 6.2035H130.65L130.524 6.04517C130.572 6.03725 130.603 5.99767 130.603 5.94225ZM130.445 5.99767H130.43V5.89475H130.445C130.493 5.89475 130.516 5.91058 130.516 5.94225C130.516 5.98183 130.493 5.99767 130.445 5.99767Z" fill="#353333"/>
<path d="M130.477 5.681C130.295 5.681 130.146 5.83142 130.146 6.0135C130.146 6.19558 130.295 6.346 130.477 6.346C130.658 6.346 130.808 6.19558 130.808 6.0135C130.808 5.83142 130.658 5.681 130.477 5.681ZM130.477 6.29058C130.335 6.29058 130.209 6.17183 130.209 6.0135C130.209 5.86308 130.327 5.73642 130.477 5.73642C130.619 5.73642 130.737 5.86308 130.737 6.0135C130.737 6.16392 130.619 6.29058 130.477 6.29058Z" fill="#353333"/>
<path d="M130.942 10.279C130.942 10.279 123.125 15.7328 108.837 18.2083H129.365C129.781 18.2083 130.179 18.0433 130.475 17.7491C130.77 17.4549 130.938 17.0554 130.941 16.6377L130.96 14.2468L130.942 10.279Z" fill="#F48120"/>
<path d="M400.715 0H375.473C374.132 0 373.106 1.02917 373.106 2.375V16.625C373.106 17.9708 374.211 19 375.473 19H400.715C402.056 19 403.081 17.9708 403.081 16.625V2.375C403.081 1.02917 401.977 0 400.715 0Z" fill="#353333"/>
<path d="M400.715 0.791667C401.582 0.791667 402.292 1.50417 402.292 2.375V16.625C402.292 17.4958 401.582 18.2083 400.715 18.2083H375.473C374.605 18.2083 373.895 17.4958 373.895 16.625V2.375C373.895 1.50417 374.605 0.791667 375.473 0.791667H400.715Z" fill="white"/>
<path fill-rule="evenodd" clip-rule="evenodd" d="M379.646 4.49033H379.673V5.18225H379.646C377.866 5.18225 376.36 6.33808 375.859 7.93092L375.19 7.72112C375.781 5.84883 377.552 4.49033 379.646 4.49033Z" fill="url(#paint2_linear_14_283)"/>
<path fill-rule="evenodd" clip-rule="evenodd" d="M379.673 5.18225V4.49033H379.646C381.746 4.49033 383.522 5.85833 384.107 7.74012L383.438 7.95071C382.946 6.35629 381.448 5.19412 379.673 5.18225Z" fill="url(#paint3_linear_14_283)"/>
<path fill-rule="evenodd" clip-rule="evenodd" d="M381.975 12.2534L382.388 12.8139C381.587 13.3868 380.629 13.6935 379.646 13.6911C378.678 13.6936 377.733 13.3964 376.94 12.84L377.353 12.2795C378 12.7332 378.791 13 379.646 13C380.517 13 381.321 12.7229 381.975 12.2534Z" fill="url(#paint4_linear_14_283)"/>
<path fill-rule="evenodd" clip-rule="evenodd" d="M375.19 7.72112L375.859 7.93092C375.741 8.30612 375.682 8.69727 375.682 9.09071C375.682 10.4072 376.341 11.5718 377.353 12.2795L376.94 12.84C375.794 12.0349 375.034 10.7318 374.982 9.25221V8.93C374.997 8.51042 375.068 8.10508 375.19 7.72112Z" fill="url(#paint5_linear_14_283)"/>
<path fill-rule="evenodd" clip-rule="evenodd" d="M384.311 9.09071C384.311 10.6218 383.555 11.9771 382.388 12.8139L381.974 12.2542C382.479 11.8963 382.89 11.4223 383.175 10.8719C383.459 10.3215 383.608 9.71074 383.609 9.09071C383.609 8.69329 383.549 8.30933 383.438 7.94833L384.106 7.73775C384.241 8.16525 384.311 8.61887 384.311 9.09071Z" fill="url(#paint6_linear_14_283)"/>
<path fill-rule="evenodd" clip-rule="evenodd" d="M381.831 9.67258C381.831 9.42875 381.661 9.3195 381.285 9.3195H380.358V10.0241H381.285C381.667 10.0241 381.831 9.91879 381.831 9.67258ZM381.155 8.19533H380.358V8.89992H381.155C381.515 8.89992 381.678 8.79066 381.678 8.54921C381.678 8.30696 381.513 8.19533 381.155 8.19533ZM382.317 9.71692C382.317 10.1872 381.944 10.4548 381.284 10.4548H379.922C379.898 10.4548 379.882 10.4389 379.882 10.416V7.80346C379.882 7.7805 379.898 7.76546 379.922 7.76546H381.164C381.805 7.76546 382.158 8.01325 382.158 8.46054C382.158 8.72575 382.04 8.93871 381.698 9.04083C382.13 9.13108 382.306 9.38679 382.317 9.71692ZM379.316 7.80346V8.16842C379.316 8.19217 379.3 8.20721 379.277 8.20721H377.699V8.88883H379.008C379.032 8.88883 379.047 8.90467 379.047 8.92762V9.29179C379.047 9.31554 379.031 9.33137 379.008 9.33137H377.7V10.416C377.7 10.4397 377.684 10.4548 377.66 10.4548H377.263C377.24 10.4548 377.224 10.4389 377.224 10.416V7.80346C377.224 7.7805 377.24 7.76546 377.263 7.76546H379.277C379.301 7.76546 379.316 7.78129 379.316 7.80346Z" fill="#64717D"/>
<path fill-rule="evenodd" clip-rule="evenodd" d="M397.728 7.77417C398.115 8.97038 398.56 10.1471 399.06 11.3002L400.283 7.77417H401.26L399.508 12.3294C399.284 12.9129 399.018 13.3625 398.71 13.6792C398.403 13.9959 397.99 14.1542 397.474 14.1542C397.345 14.1542 397.224 14.1439 397.111 14.1233V13.3277C397.205 13.3427 397.29 13.3499 397.361 13.3499C397.675 13.3499 397.93 13.2628 398.128 13.087C398.325 12.9121 398.498 12.6548 398.647 12.316C398.277 11.5827 397.932 10.837 397.612 10.0803C397.29 9.31767 396.982 8.54881 396.69 7.77417H397.728ZM394.1 7.66808C394.649 7.66808 395.091 7.82404 395.425 8.13596C395.76 8.44867 395.928 8.91575 395.928 9.53721V12.1917H395.068V11.4712C394.894 11.7309 394.671 11.9304 394.4 12.0705C394.112 12.2141 393.793 12.2861 393.472 12.2803C392.999 12.2803 392.633 12.16 392.372 11.9201C392.11 11.6802 391.98 11.3636 391.98 10.9725C391.98 10.5838 392.127 10.2576 392.421 9.99558C392.715 9.73433 393.185 9.60212 393.83 9.60212H395.049V9.58946C395.049 8.84687 394.702 8.47558 394.01 8.47558C393.72 8.47558 393.476 8.52704 393.276 8.63075C393.078 8.73367 392.917 8.87775 392.795 9.06379L392.181 8.57296C392.372 8.28162 392.624 8.05758 392.936 7.90162C393.268 7.74098 393.633 7.66072 394.001 7.66729H394.099L394.1 7.66808ZM389.009 6.00717C389.795 6.00717 390.381 6.19162 390.77 6.56133C391.158 6.93104 391.352 7.43217 391.352 8.0655C391.352 8.69646 391.158 9.19758 390.77 9.56808C390.381 9.93937 389.795 10.1246 389.009 10.1246H387.324V12.1925H386.382V6.00717H389.009ZM395.049 10.2972H393.866C393.514 10.2972 393.262 10.3526 393.111 10.4635C393.039 10.5134 392.981 10.5805 392.941 10.6588C392.902 10.737 392.883 10.8239 392.885 10.9115C392.885 11.2995 393.145 11.4942 393.669 11.4942C394.015 11.4942 394.303 11.4174 394.534 11.2622C394.764 11.1079 394.936 10.8981 395.049 10.6329V10.2972ZM388.92 6.87246H387.324V9.25854H388.919C389.43 9.25854 389.802 9.15958 390.037 8.96008C390.272 8.76217 390.388 8.46371 390.388 8.0655C390.388 7.66808 390.272 7.36962 390.037 7.17092C389.802 6.97221 389.431 6.87246 388.92 6.87246Z" fill="#1B2529"/>
<path d="M434.634 0H409.392C408.051 0 407.025 1.02917 407.025 2.375V16.625C407.025 17.9708 408.13 19 409.392 19H434.634C435.975 19 437 17.9708 437 16.625V2.375C437 1.02917 435.896 0 434.634 0Z" fill="#353333"/>
<path d="M434.634 0.791667C435.501 0.791667 436.211 1.50417 436.211 2.375V16.625C436.211 17.4958 435.501 18.2083 434.634 18.2083H409.392C408.524 18.2083 407.814 17.4958 407.814 16.625V2.375C407.814 1.50417 408.524 0.791667 409.392 0.791667H434.634Z" fill="white"/>
<path d="M421.297 9.481V12.0143H420.494V5.76017H422.617C422.871 5.75585 423.124 5.80202 423.36 5.89604C423.597 5.99005 423.812 6.13006 423.995 6.308C424.168 6.46981 424.307 6.66421 424.405 6.88009C424.503 7.09596 424.557 7.32908 424.565 7.56612C424.573 7.80316 424.535 8.03946 424.452 8.26153C424.369 8.4836 424.243 8.68708 424.082 8.86033L423.995 8.95217C423.624 9.30604 423.129 9.49842 422.617 9.48575L421.297 9.481ZM421.297 6.5265V8.73367H422.637C422.934 8.74317 423.221 8.62679 423.429 8.41383C423.578 8.25801 423.678 8.06167 423.717 7.84924C423.756 7.63681 423.731 7.41767 423.647 7.21907C423.562 7.02047 423.421 6.85119 423.242 6.73227C423.062 6.61335 422.852 6.55006 422.637 6.55025L421.297 6.5265ZM426.412 7.59367C426.925 7.56992 427.426 7.7425 427.814 8.07896C428.165 8.41937 428.352 8.89437 428.327 9.38442V12.0238H427.563V11.4174H427.524C427.387 11.6449 427.193 11.8325 426.962 11.9617C426.73 12.091 426.469 12.1574 426.204 12.1545C425.772 12.1685 425.35 12.0177 425.024 11.7325C424.87 11.606 424.746 11.4459 424.662 11.2643C424.578 11.0827 424.537 10.8844 424.541 10.6843C424.532 10.4821 424.571 10.2807 424.655 10.0967C424.739 9.91276 424.866 9.75161 425.024 9.62667C425.414 9.34575 425.885 9.20236 426.364 9.21896C426.771 9.20312 427.176 9.29258 427.539 9.481V9.31633C427.542 9.18019 427.513 9.04522 427.456 8.92164C427.4 8.79806 427.315 8.68911 427.21 8.60304C426.999 8.41039 426.722 8.30615 426.437 8.31171C426.23 8.30975 426.026 8.36084 425.844 8.46016C425.661 8.55948 425.508 8.70375 425.397 8.87933L424.691 8.43283C424.882 8.15718 425.141 7.93534 425.442 7.78846C425.744 7.64157 426.077 7.57451 426.412 7.59367ZM425.397 10.7033C425.395 10.8059 425.418 10.9073 425.464 10.9987C425.511 11.0901 425.579 11.1686 425.662 11.2274C425.838 11.3667 426.057 11.4404 426.282 11.4356C426.62 11.4348 426.944 11.301 427.186 11.062C427.426 10.8355 427.563 10.5197 427.563 10.1887C427.259 9.97208 426.89 9.86747 426.518 9.89267C426.23 9.88126 425.945 9.96282 425.706 10.1254C425.611 10.189 425.533 10.275 425.479 10.3757C425.426 10.4765 425.397 10.589 425.397 10.7033ZM432.721 7.73458L430.047 13.9017H429.221L430.231 11.742L428.477 7.73458H429.347L430.618 10.8102L431.856 7.73458H432.721Z" fill="#5F6368"/>
<path d="M418.058 8.93317C418.058 8.68933 418.039 8.4455 418 8.20483H414.616V9.58787H416.549C416.51 9.80768 416.427 10.0172 416.305 10.204C416.183 10.3908 416.025 10.5509 415.839 10.6748V11.5726H416.994C417.345 11.2316 417.621 10.8206 417.805 10.3659C417.988 9.91134 418.074 9.42325 418.058 8.93317Z" fill="#4285F4"/>
<path d="M414.621 12.4458C415.493 12.4698 416.342 12.1593 416.995 11.5773L415.839 10.6748C415.562 10.8536 415.246 10.9665 414.918 11.0048C414.59 11.0431 414.258 11.0059 413.947 10.896C413.635 10.7861 413.353 10.6064 413.121 10.3705C412.889 10.1346 412.714 9.84883 412.609 9.53483H411.424V10.4611C411.721 11.0572 412.177 11.5587 412.742 11.9093C413.306 12.2598 413.957 12.4456 414.621 12.4458Z" fill="#34A853"/>
<path d="M412.609 9.53958C412.459 9.09412 412.459 8.61151 412.609 8.16604V7.23979H411.424C411.172 7.73969 411.04 8.29231 411.04 8.85281C411.04 9.41332 411.172 9.96593 411.424 10.4658L412.609 9.53958Z" fill="#FBBC04"/>
<path d="M414.621 6.68167C415.131 6.67231 415.624 6.86582 415.993 7.22L417.019 6.19637C416.365 5.58047 415.498 5.24452 414.601 5.25983C413.941 5.26315 413.295 5.44984 412.734 5.79918C412.173 6.14852 411.72 6.64767 411.424 7.23979L412.609 8.16604C412.748 7.73861 413.016 7.36551 413.377 7.09925C413.738 6.83298 414.173 6.68694 414.621 6.68167Z" fill="#EA4335"/>
<path d="M265.04 0H239.798C238.457 0 237.431 1.02917 237.431 2.375V16.625C237.431 17.9708 238.536 19 239.798 19H265.04C266.381 19 267.406 17.9708 267.406 16.625V2.375C267.406 1.02917 266.302 0 265.04 0Z" fill="#353333"/>
<path d="M265.04 0.791667C265.907 0.791667 266.617 1.50417 266.617 2.375V16.625C266.617 17.4958 265.907 18.2083 265.04 18.2083H239.798C238.93 18.2083 238.22 17.4958 238.22 16.625V2.375C238.22 1.50417 238.93 0.791667 239.798 0.791667H265.04Z" fill="white"/>
<path fill-rule="evenodd" clip-rule="evenodd" d="M246.503 3.95833H249.264V13.0625C249.264 13.5874 249.056 14.0908 248.686 14.462C248.316 14.8331 247.815 15.0417 247.292 15.0417H244.531V5.9375C244.531 5.41259 244.738 4.90918 245.108 4.53802C245.478 4.16685 245.98 3.95833 246.503 3.95833Z" fill="#006EBC"/>
<path fill-rule="evenodd" clip-rule="evenodd" d="M252.024 3.95833H254.785V13.0625C254.785 13.5874 254.577 14.0908 254.208 14.462C253.838 14.8331 253.336 15.0417 252.813 15.0417H250.052V5.9375C250.052 5.41259 250.26 4.90918 250.63 4.53802C251 4.16685 251.501 3.95833 252.024 3.95833Z" fill="#F00036"/>
<path fill-rule="evenodd" clip-rule="evenodd" d="M257.546 3.95833H260.307V13.0625C260.307 13.5874 260.099 14.0908 259.729 14.462C259.359 14.8331 258.858 15.0417 258.335 15.0417H255.574V5.9375C255.574 5.41259 255.782 4.90918 256.152 4.53802C256.521 4.16685 257.023 3.95833 257.546 3.95833Z" fill="#2AB419"/>
<path d="M245.915 11.4792C245.079 11.4792 244.241 11.2385 243.82 10.6978L244.435 10.1626C244.489 11.0596 247.232 11.1443 247.232 10.0122V7.52083H248.653V10.0122C248.653 10.5885 248.2 11.0588 247.412 11.3042C247.045 11.4182 246.335 11.4792 245.915 11.4792ZM252.317 11.4792C251.785 11.4792 251.222 11.3945 250.767 11.1894C250.019 10.853 249.732 10.2347 249.742 9.44854C249.751 8.64579 250.085 8.03779 250.9 7.73458C251.94 7.34667 253.537 7.52796 253.996 7.94833V8.71783C253.545 8.30538 252.452 8.00692 251.694 8.35367C251.304 8.53258 251.113 9.07963 251.107 9.5C251.102 9.94333 251.3 10.4912 251.694 10.6851C252.446 11.0548 253.579 10.7168 253.996 10.336V11.1356C253.714 11.3375 253.008 11.4792 252.317 11.4792ZM259.163 9.43112C259.455 9.24508 259.622 8.98225 259.622 8.6355C259.622 8.28875 259.531 8.09162 259.348 7.89212C259.185 7.72825 258.89 7.52083 258.371 7.52083H255.574V11.4792H258.371C258.92 11.4792 259.236 11.2971 259.408 11.1506C259.632 10.9527 259.744 10.731 259.744 10.3906C259.744 10.0494 259.622 9.67179 259.163 9.43112ZM257.66 9.20867H256.533V8.0655H257.712C258.467 8.0655 258.457 9.20867 257.66 9.20867ZM257.887 10.9163H256.533V9.7185H257.887C258.665 9.7185 258.741 10.9163 257.887 10.9163Z" fill="white"/>
<path d="M366.796 0H341.554C340.213 0 339.188 1.02917 339.188 2.375V16.625C339.188 17.9708 340.292 19 341.554 19H366.796C368.137 19 369.162 17.9708 369.162 16.625V2.375C369.162 1.02917 368.058 0 366.796 0Z" fill="#353333"/>
<path d="M366.796 0.791667C367.664 0.791667 368.374 1.50417 368.374 2.375V16.625C368.374 17.4958 367.664 18.2083 366.796 18.2083H341.554C340.686 18.2083 339.977 17.4958 339.977 16.625V2.375C339.977 1.50417 340.686 0.791667 341.554 0.791667H366.796Z" fill="white"/>
<path d="M351.02 15.0417C354.069 15.0417 356.542 12.5606 356.542 9.5C356.542 6.43942 354.069 3.95833 351.02 3.95833C347.97 3.95833 345.498 6.43942 345.498 9.5C345.498 12.5606 347.97 15.0417 351.02 15.0417Z" fill="#EB001B"/>
<path d="M357.33 15.0417C360.38 15.0417 362.852 12.5606 362.852 9.5C362.852 6.43942 360.38 3.95833 357.33 3.95833C354.281 3.95833 351.809 6.43942 351.809 9.5C351.809 12.5606 354.281 15.0417 357.33 15.0417Z" fill="#F79E1B"/>
<path d="M356.542 9.5C356.542 7.6 355.595 5.9375 354.175 4.9875C352.755 6.01667 351.809 7.67917 351.809 9.5C351.809 11.3208 352.755 13.0625 354.175 14.0125C355.595 13.0625 356.542 11.4 356.542 9.5Z" fill="#FF5F00"/>
<path d="M298.958 0H273.717C272.376 0 271.35 1.02917 271.35 2.375V16.625C271.35 17.9708 272.455 19 273.717 19H298.958C300.299 19 301.325 17.9708 301.325 16.625V2.375C301.325 1.02917 300.221 0 298.958 0Z" fill="#353333"/>
<path d="M298.958 0.791667C299.826 0.791667 300.536 1.50417 300.536 2.375V16.625C300.536 17.4958 299.826 18.2083 298.958 18.2083H273.717C272.849 18.2083 272.139 17.4958 272.139 16.625V2.375C272.139 1.50417 272.849 0.791667 273.717 0.791667H298.958Z" fill="white"/>
<path d="M290.203 6.57083C290.36 5.77917 290.203 5.225 289.729 4.75C289.256 4.19583 288.388 3.95833 287.284 3.95833H284.05C283.813 3.95833 283.656 4.11667 283.577 4.35417L282.393 12.35C282.393 12.5083 282.472 12.6667 282.63 12.6667H284.76L285.075 9.975L286.495 8.23333L290.203 6.57083Z" fill="#003087"/>
<path d="M290.203 6.57083L290.045 6.72917C289.651 8.94583 288.31 9.7375 286.416 9.7375H285.549C285.312 9.7375 285.154 9.89583 285.075 10.1333L284.602 13.2208L284.444 14.0125C284.444 14.1708 284.523 14.3292 284.681 14.3292H286.338C286.574 14.3292 286.732 14.1708 286.732 14.0125V13.9333L287.047 12.0333V11.9542C287.047 11.7958 287.284 11.6375 287.442 11.6375H287.679C289.335 11.6375 290.597 11.0042 290.913 9.10417C291.07 8.3125 290.992 7.67917 290.597 7.20417C290.518 6.80833 290.36 6.65 290.203 6.57083Z" fill="#3086C8"/>
<path d="M289.729 6.4125C289.651 6.33333 289.572 6.33333 289.493 6.33333C289.414 6.33333 289.335 6.33333 289.256 6.25417C289.02 6.175 288.704 6.175 288.388 6.175H286.022C285.943 6.175 285.864 6.175 285.864 6.25417C285.706 6.33333 285.628 6.4125 285.628 6.57083L285.075 10.0542V10.1333C285.075 9.89583 285.312 9.7375 285.549 9.7375H286.574C288.546 9.7375 289.808 8.94583 290.203 6.72917V6.57083C290.124 6.49167 289.966 6.4125 289.808 6.4125H289.729Z" fill="#012169"/>
<path d="M197.202 0H171.96C170.619 0 169.594 1.02917 169.594 2.375V16.625C169.594 17.9708 170.698 19 171.96 19H197.202C198.543 19 199.569 17.9708 199.569 16.625V2.375C199.569 1.02917 198.464 0 197.202 0Z" fill="#353333"/>
<path d="M197.202 0.791667C198.07 0.791667 198.78 1.50417 198.78 2.375V16.625C198.78 17.4958 198.07 18.2083 197.202 18.2083H171.96C171.093 18.2083 170.383 17.4958 170.383 16.625V2.375C170.383 1.50417 171.093 0.791667 171.96 0.791667H197.202Z" fill="#5A31F4"/>
<path d="M186.46 7.68946C186.46 9.00996 185.532 9.95204 184.235 9.95204H183.013C182.993 9.95234 182.973 9.95848 182.956 9.96971C182.94 9.98095 182.926 9.9968 182.918 10.0154C182.913 10.0277 182.911 10.0408 182.911 10.0542V11.7895C182.911 11.803 182.908 11.8163 182.903 11.8288C182.898 11.8412 182.89 11.8525 182.88 11.862C182.871 11.8715 182.86 11.879 182.847 11.8841C182.835 11.8892 182.821 11.8917 182.808 11.8916H181.953C181.926 11.8916 181.9 11.8808 181.88 11.8615C181.861 11.8422 181.85 11.816 181.85 11.7887V5.53058C181.85 5.51019 181.856 5.49019 181.867 5.47322C181.878 5.45625 181.895 5.44313 181.913 5.43558C181.926 5.43034 181.939 5.42764 181.953 5.42767H184.24C185.532 5.42767 186.46 6.36896 186.46 7.68946ZM185.394 7.68946C185.394 6.93104 184.875 6.37687 184.171 6.37687H183.013C183 6.37687 182.986 6.37954 182.974 6.38471C182.961 6.38988 182.95 6.39746 182.941 6.40702C182.931 6.41657 182.923 6.42792 182.918 6.44041C182.913 6.45289 182.911 6.46628 182.911 6.47979V8.89437C182.91 8.90791 182.913 8.92134 182.918 8.93386C182.923 8.94638 182.931 8.95772 182.941 8.96721C182.95 8.9768 182.961 8.98439 182.974 8.98956C182.986 8.99472 183 8.99735 183.013 8.99729H184.171C184.875 9.00125 185.394 8.44708 185.394 7.68946ZM186.714 10.6907C186.705 10.4878 186.747 10.286 186.836 10.1038C186.926 9.92158 187.059 9.76484 187.225 9.64804C187.558 9.39787 188.08 9.26804 188.846 9.24113L189.66 9.21262V8.97275C189.66 8.49221 189.337 8.28954 188.818 8.28954C188.299 8.28954 187.97 8.47241 187.895 8.77246C187.889 8.79354 187.876 8.81192 187.858 8.8248C187.84 8.83767 187.818 8.84431 187.796 8.84371H186.99C186.968 8.84399 186.946 8.83705 186.928 8.82392C186.911 8.81078 186.897 8.79217 186.891 8.77087C186.887 8.75678 186.885 8.7419 186.888 8.72733C187.008 8.01642 187.601 7.4765 188.855 7.4765C190.19 7.4765 190.672 8.09637 190.672 9.27833V11.7895C190.672 11.8031 190.669 11.8165 190.663 11.829C190.658 11.8415 190.65 11.8528 190.641 11.8623C190.631 11.8718 190.62 11.8793 190.607 11.8843C190.594 11.8894 190.581 11.8918 190.567 11.8916H189.755C189.728 11.8916 189.702 11.8808 189.683 11.8615C189.663 11.8422 189.652 11.816 189.652 11.7887V11.6019C189.653 11.5864 189.648 11.5712 189.64 11.5583C189.631 11.5454 189.619 11.5355 189.604 11.5298C189.59 11.5242 189.575 11.5229 189.56 11.526C189.545 11.529 189.531 11.5364 189.52 11.5472C189.275 11.8117 188.883 12.0025 188.252 12.0025C187.325 12.0025 186.714 11.5219 186.714 10.6907ZM189.66 10.1468V9.95204L188.604 10.0075C188.048 10.036 187.725 10.2655 187.725 10.6535C187.725 11.005 188.021 11.1997 188.54 11.1997C189.245 11.1997 189.66 10.8197 189.66 10.1468ZM191.487 13.7885V13.0609C191.487 13.0457 191.491 13.0307 191.498 13.017C191.504 13.0033 191.514 12.9912 191.526 12.9817C191.538 12.9722 191.551 12.9653 191.566 12.9616C191.581 12.9579 191.596 12.9575 191.611 12.9604C191.736 12.9833 191.862 12.9952 191.989 12.9952C192.206 13.0072 192.422 12.9452 192.6 12.8194C192.778 12.6936 192.909 12.5112 192.971 12.3017L193.024 12.1347C193.032 12.1121 193.032 12.0875 193.024 12.065L191.332 7.73379C191.322 7.71002 191.321 7.68343 191.33 7.65925C191.339 7.63507 191.356 7.61506 191.379 7.60317C191.394 7.59519 191.411 7.59111 191.428 7.59129H192.248C192.27 7.59135 192.29 7.59781 192.307 7.60982C192.325 7.62183 192.338 7.63884 192.345 7.65858L193.494 10.7136C193.501 10.7341 193.514 10.7519 193.532 10.7644C193.55 10.7769 193.571 10.7835 193.593 10.7833C193.614 10.7833 193.635 10.7766 193.653 10.7641C193.67 10.7516 193.684 10.734 193.691 10.7136L194.689 7.66729C194.696 7.64629 194.709 7.62802 194.727 7.61519C194.745 7.60237 194.766 7.59565 194.788 7.59604H195.637C195.663 7.59619 195.687 7.60556 195.706 7.62244C195.725 7.63931 195.738 7.66255 195.741 7.68787C195.743 7.70477 195.741 7.72187 195.735 7.73775L193.925 12.5479C193.508 13.6665 192.794 13.9515 192.008 13.9515C191.859 13.9557 191.71 13.9381 191.565 13.8993C191.541 13.8933 191.52 13.8789 191.505 13.8585C191.491 13.8382 191.485 13.8133 191.487 13.7885ZM176.354 5.06667C175.278 5.05859 174.239 5.46259 173.449 6.19637C173.415 6.22706 173.394 6.26923 173.39 6.31463C173.386 6.36004 173.399 6.40539 173.426 6.44179L173.913 7.106C173.929 7.1284 173.95 7.14703 173.973 7.16056C173.997 7.1741 174.024 7.18222 174.051 7.18434C174.078 7.18645 174.106 7.18252 174.131 7.17281C174.157 7.1631 174.18 7.14786 174.199 7.12817C174.483 6.84522 174.82 6.62181 175.191 6.47094C175.562 6.32007 175.959 6.24477 176.359 6.24942C178.031 6.24942 178.904 7.50342 178.904 8.74317C178.904 10.089 177.987 11.0374 176.668 11.0556C175.649 11.0556 174.88 10.3827 174.88 9.49288C174.881 9.26787 174.932 9.04589 175.03 8.84318C175.127 8.64047 175.268 8.46213 175.443 8.32121C175.48 8.29057 175.504 8.2464 175.509 8.19834C175.513 8.15029 175.499 8.10224 175.469 8.06471L174.956 7.4195C174.941 7.39966 174.921 7.38317 174.899 7.37102C174.877 7.35887 174.853 7.35131 174.828 7.3488C174.803 7.34628 174.778 7.34887 174.754 7.35639C174.73 7.36392 174.708 7.37623 174.689 7.39258C174.375 7.6454 174.121 7.96535 173.946 8.32912C173.771 8.69209 173.68 9.08985 173.68 9.49288C173.68 11.0247 174.985 12.2257 176.658 12.2352H176.681C178.667 12.2099 180.102 10.7437 180.102 8.74C180.102 6.96112 178.787 5.06667 176.354 5.06667Z" fill="white"/>
<path d="M332.877 0H307.635C306.328 0 305.269 1.06332 305.269 2.375V16.625C305.269 17.9367 306.328 19 307.635 19H332.877C334.184 19 335.244 17.9367 335.244 16.625V2.375C335.244 1.06332 334.184 0 332.877 0Z" fill="black" fill-opacity="0.07"/>
<path fill-rule="evenodd" clip-rule="evenodd" d="M332.877 0.791667C333.745 0.791667 334.455 1.50417 334.455 2.375V16.625C334.455 17.4958 333.745 18.2083 332.877 18.2083H307.635C306.768 18.2083 306.058 17.4958 306.058 16.625V2.375C306.058 1.50417 306.768 0.791667 307.635 0.791667H332.877Z" fill="#3D95CE"/>
<path d="M324.733 6.61833C324.733 9.044 322.716 12.1956 321.078 14.4083H317.339L315.839 5.20125L319.113 4.883L319.906 11.434C320.648 10.1943 321.562 8.24758 321.562 6.91996C321.562 6.19321 321.44 5.69842 321.251 5.29071L324.233 4.67083C324.577 5.25508 324.733 5.85754 324.733 6.61833Z" fill="white"/>
<path d="M231.121 0H205.879C204.538 0 203.513 1.02917 203.513 2.375V16.625C203.513 17.9708 204.617 19 205.879 19H231.121C232.462 19 233.487 17.9708 233.487 16.625V2.375C233.487 1.02917 232.383 0 231.121 0Z" fill="#353333"/>
<path d="M231.121 0.791667C231.989 0.791667 232.699 1.50417 232.699 2.375V16.625C232.699 17.4958 231.989 18.2083 231.121 18.2083H205.879C205.011 18.2083 204.301 17.4958 204.301 16.625V2.375C204.301 1.50417 205.011 0.791667 205.879 0.791667H231.121Z" fill="white"/>
<path d="M225.836 7.99583H225.599C225.284 8.7875 225.047 9.18333 224.81 10.3708H226.309C226.073 9.18333 226.073 8.62917 225.836 7.99583ZM228.123 12.6667H226.782C226.704 12.6667 226.704 12.6667 226.625 12.5875L226.467 11.875L226.388 11.7167H224.495C224.416 11.7167 224.337 11.7167 224.337 11.875L224.101 12.5875C224.101 12.6667 224.022 12.6667 224.022 12.6667H222.365L222.523 12.2708L224.81 6.8875C224.81 6.49167 225.047 6.33333 225.441 6.33333H226.625C226.704 6.33333 226.782 6.33333 226.782 6.49167L227.887 11.6375C227.966 11.9542 228.045 12.1917 228.045 12.5083C228.123 12.5875 228.123 12.5875 228.123 12.6667ZM217.553 12.4292L217.869 11.0042C217.948 11.0042 218.027 11.0833 218.027 11.0833C218.579 11.3208 219.131 11.4792 219.683 11.4C219.841 11.4 220.078 11.3208 220.235 11.2417C220.63 11.0833 220.63 10.6875 220.314 10.3708C220.156 10.2125 219.92 10.1333 219.683 9.975C219.368 9.81667 219.052 9.65833 218.816 9.42083C217.869 8.62917 218.184 7.52083 218.737 6.96667C219.21 6.65 219.447 6.33333 220.078 6.33333C221.024 6.33333 222.05 6.33333 222.523 6.49167H222.602C222.523 6.96667 222.444 7.3625 222.286 7.8375C221.892 7.67917 221.497 7.52083 221.103 7.52083C220.866 7.52083 220.63 7.52083 220.393 7.6C220.235 7.6 220.156 7.67917 220.078 7.75833C219.92 7.91667 219.92 8.15417 220.078 8.3125L220.472 8.62917C220.788 8.7875 221.103 8.94583 221.34 9.10417C221.734 9.34167 222.129 9.7375 222.207 10.2125C222.365 10.925 222.128 11.5583 221.497 12.0333C221.103 12.35 220.945 12.5083 220.393 12.5083C219.289 12.5083 218.421 12.5875 217.711 12.35C217.632 12.5083 217.632 12.5083 217.553 12.4292ZM214.793 12.6667C214.871 12.1125 214.871 12.1125 214.95 11.875C215.345 10.1333 215.739 8.3125 216.055 6.57083C216.134 6.4125 216.134 6.33333 216.291 6.33333H217.711C217.553 7.28333 217.396 7.99583 217.159 8.86667C216.922 10.0542 216.686 11.2417 216.37 12.4292C216.37 12.5875 216.291 12.5875 216.134 12.5875L214.793 12.6667ZM207.457 6.49167C207.457 6.4125 207.614 6.33333 207.693 6.33333H210.375C210.77 6.33333 211.085 6.57083 211.164 6.96667L211.874 10.45C211.874 10.5292 211.874 10.5292 211.953 10.6083C211.953 10.5292 212.032 10.5292 212.032 10.5292L213.688 6.49167C213.609 6.4125 213.688 6.33333 213.767 6.33333H215.424C215.424 6.4125 215.424 6.4125 215.345 6.49167L212.899 12.2708C212.821 12.4292 212.821 12.5083 212.742 12.5875C212.663 12.6667 212.505 12.5875 212.347 12.5875H211.164C211.085 12.5875 211.006 12.5875 211.006 12.4292L209.744 7.52083C209.586 7.3625 209.35 7.125 209.034 7.04583C208.561 6.80833 207.693 6.65 207.536 6.65L207.457 6.49167Z" fill="#142688"/>
<defs>
<linearGradient id="paint0_linear_14_283" x1="330.098" y1="17.1039" x2="329.697" y2="2.64572" gradientUnits="userSpaceOnUse">
<stop stop-color="#F89F20"/>
<stop offset="0.25" stop-color="#F79A20"/>
<stop offset="0.533" stop-color="#F68D20"/>
<stop offset="0.62" stop-color="#F58720"/>
<stop offset="0.723" stop-color="#F48120"/>
<stop offset="1" stop-color="#F37521"/>
</linearGradient>
<linearGradient id="paint1_linear_14_283" x1="306.317" y1="16.9645" x2="305.791" y2="-6.68554" gradientUnits="userSpaceOnUse">
<stop stop-color="#F58720"/>
<stop offset="0.359" stop-color="#E16F27"/>
<stop offset="0.703" stop-color="#D4602C"/>
<stop offset="0.982" stop-color="#D05B2E"/>
</linearGradient>
<linearGradient id="paint2_linear_14_283" x1="437" y1="4.94455" x2="433.847" y2="45.8534" gradientUnits="userSpaceOnUse">
<stop stop-color="#24D365"/>
<stop offset="1" stop-color="#139DBD"/>
</linearGradient>
<linearGradient id="paint3_linear_14_283" x1="4.31848e-06" y1="4.79021" x2="3.09963" y2="45.5553" gradientUnits="userSpaceOnUse">
<stop stop-color="#23D068"/>
<stop offset="0.52" stop-color="#EACD36"/>
<stop offset="1" stop-color="#FF6C5C"/>
</linearGradient>
<linearGradient id="paint4_linear_14_283" x1="16.5156" y1="4.16405" x2="419.915" y2="4.16405" gradientUnits="userSpaceOnUse">
<stop stop-color="#266FF3"/>
<stop offset="1" stop-color="#C439D6"/>
</linearGradient>
<linearGradient id="paint5_linear_14_283" x1="255.426" y1="18.045" x2="255.303" y2="0.0375299" gradientUnits="userSpaceOnUse">
<stop stop-color="#266FF3"/>
<stop offset="1" stop-color="#149FBA"/>
</linearGradient>
<linearGradient id="paint6_linear_14_283" x1="244.384" y1="0.411884" x2="244.26" y2="18.5187" gradientUnits="userSpaceOnUse">
<stop stop-color="#FF6C5C"/>
<stop offset="1" stop-color="#C439D6"/>
</linearGradient>
</defs>
</svg>
