<svg width="174" height="70" viewBox="0 0 174 70" fill="none" xmlns="http://www.w3.org/2000/svg">
<path d="M75.7651 51.8302C75.9786 51.9952 75.9786 52.1844 75.7651 52.4028H70.2909C70.2251 52.4116 70.1582 52.4051 70.0953 52.3838C70.0324 52.3625 69.9752 52.327 69.9283 52.2801C69.8814 52.2331 69.8459 52.176 69.8246 52.1131C69.8033 52.0503 69.7968 51.9833 69.8056 51.9175V47.4285C69.8075 47.3811 69.7973 47.334 69.7761 47.2916C69.7549 47.2491 69.7233 47.2128 69.6843 47.1858C69.6018 47.1324 69.5338 47.1567 69.4804 47.2683C68.0586 48.896 66.3617 50.261 64.4673 51.3012C62.4527 52.4248 60.1786 53.0004 57.872 52.9706C56.2549 52.9738 54.6418 52.8112 53.0579 52.4853C51.5467 52.19 50.0889 51.6681 48.7338 50.9372C47.4955 50.2832 46.4283 49.3473 45.6182 48.2049C44.8062 46.9878 44.3955 45.5471 44.4438 44.0847C44.3851 41.7021 45.1726 39.3757 46.6664 37.5186C48.2566 35.615 50.2444 34.0828 52.4901 33.0296C55.0615 31.8052 57.7833 30.9257 60.5849 30.4138C63.5327 29.8487 66.5232 29.5354 69.5241 29.4772C69.5571 29.4821 69.5908 29.4792 69.6225 29.4687C69.6542 29.4583 69.683 29.4405 69.7066 29.417C69.7302 29.3934 69.7479 29.3646 69.7583 29.3329C69.7688 29.3012 69.7717 29.2675 69.7668 29.2345C69.7668 27.4389 69.6859 25.7387 69.5241 24.134C69.3912 22.6531 69.0072 21.2057 68.3885 19.8536C67.7979 18.6022 66.8374 17.5621 65.6369 16.8739C64.401 16.1427 62.6765 15.7755 60.4636 15.7723C58.5709 15.7723 57.06 16.1395 55.9308 16.8739C54.8429 17.5639 53.9188 18.4831 53.2229 19.5673C52.5572 20.605 52.0394 21.7304 51.6845 22.911C51.3906 23.9286 51.0257 24.9243 50.5925 25.8908C50.5455 26.0125 50.4717 26.1221 50.3765 26.2114C50.2814 26.3007 50.1673 26.3675 50.0428 26.4066C49.9183 26.4458 49.7866 26.4564 49.6574 26.4377C49.5283 26.4189 49.405 26.3714 49.2968 26.2985L46.2248 24.4203C46.122 24.3732 46.0339 24.2992 45.9698 24.2061C45.9058 24.1129 45.8681 24.0042 45.8608 23.8913C45.8296 23.6531 45.872 23.4109 45.9822 23.1974C46.6227 22.0997 47.397 21.0857 48.2873 20.1788C49.2771 19.1604 50.3907 18.2703 51.6019 17.5291C52.8907 16.7287 54.2771 16.0975 55.727 15.6509C57.2617 15.1816 58.8587 14.9476 60.4636 14.9569C62.0172 14.9707 63.5641 15.1628 65.0739 15.5296C66.6725 15.9086 68.1919 16.5657 69.563 17.4708C71.0883 18.4501 72.3287 19.8138 73.1593 21.4249C73.99 23.0359 74.3816 24.8374 74.2946 26.6479V50.3063C74.2649 50.5149 74.2991 50.7277 74.3927 50.9165C74.4862 51.1054 74.6348 51.2615 74.8188 51.3643C75.142 51.5031 75.4579 51.6586 75.7651 51.8302ZM69.8056 40.0034V30.54C69.8103 30.5068 69.8073 30.473 69.7969 30.4411C69.7864 30.4093 69.7688 30.3803 69.7453 30.3564C69.7219 30.3324 69.6932 30.3142 69.6616 30.3031C69.63 30.2921 69.5962 30.2884 69.563 30.2925C67.0554 30.3455 64.5603 30.661 62.1184 31.234C59.8627 31.7357 57.6952 32.5733 55.6882 33.7187C53.8945 34.7449 52.359 36.1674 51.1992 37.8777C50.035 39.6718 49.4427 41.777 49.5006 43.9149C49.4629 45.0058 49.6479 46.093 50.0442 47.1101C50.4405 48.1272 51.0399 49.0529 51.8058 49.8307C53.3393 51.3772 55.3744 52.1521 57.9109 52.1553C59.4028 52.1724 60.8761 51.8225 62.2009 51.1362C63.5129 50.44 64.6897 49.5147 65.6757 48.4039C66.7224 47.2291 67.5951 45.9102 68.2672 44.4875C68.9536 43.0581 69.47 41.5531 69.8056 40.0034Z" fill="white"/>
<path d="M73.096 15.2823C72.9893 15.1221 73.096 15.0396 73.3387 15.0396H75.44L80.1329 14.9571H82.4235C82.6953 14.9571 82.8263 15.0687 82.8263 15.2823H82.9088C82.9171 15.3469 82.9064 15.4125 82.878 15.4711C82.8495 15.5298 82.8046 15.5788 82.7487 15.6123C81.8848 15.9908 81.4934 16.5618 81.5742 17.3254C81.6794 18.1886 81.8829 19.0369 82.1809 19.8538C82.2876 20.1256 82.7487 21.2272 83.5543 23.1539L86.4661 30.0888C87.6017 32.7839 88.7761 35.6115 89.9894 38.5719C91.2026 41.5322 92.2395 44.1561 93.1001 46.4435C93.2069 46.6085 93.3185 46.691 93.4253 46.691C93.5321 46.691 93.6146 46.6085 93.6679 46.4435C94.26 44.7061 94.8311 42.9914 95.3811 41.2993C95.9311 39.6072 96.4714 38.0154 97.002 36.5239C97.5131 35.0292 97.958 33.7108 98.3365 32.5687C98.7102 31.4283 98.982 30.5547 99.147 29.9578C99.8976 27.7836 100.558 25.8263 101.127 24.0857C101.696 22.345 102.169 20.9571 102.544 19.9218C102.794 19.0851 102.957 18.2247 103.029 17.3545C103.083 16.5683 102.675 15.9811 101.816 15.6026C101.759 15.5702 101.713 15.5216 101.683 15.4628C101.654 15.404 101.643 15.3378 101.651 15.2726H101.734C101.727 15.2284 101.731 15.1832 101.745 15.1408C101.759 15.0983 101.783 15.0598 101.814 15.0282C101.846 14.9966 101.885 14.9728 101.927 14.9588C101.969 14.9448 102.015 14.9409 102.059 14.9474H107.072C107.232 14.9474 107.315 15.059 107.315 15.2726C107.292 15.3503 107.251 15.4212 107.194 15.4789C107.137 15.5365 107.067 15.579 106.989 15.6026C106.02 15.9013 105.181 16.5187 104.607 17.3545C104.087 18.1571 103.665 19.019 103.35 19.9218C103.295 20.1385 103.012 20.9829 102.5 22.455C101.989 23.9271 101.383 25.7341 100.681 27.8759C99.9817 30.0241 99.2133 32.3503 98.3754 34.8545L95.9489 42.134C95.1659 44.4731 94.4655 46.5664 93.8475 48.4138C93.2263 50.2628 92.7798 51.5925 92.5129 52.4127C91.8626 54.4218 89.8001 59.6582 89.2371 61.3131C88.6742 62.968 88.2229 64.3171 87.9026 65.3508C87.6124 66.2919 87.1149 67.1559 86.4467 67.8792C85.9253 68.4258 85.3269 68.8934 84.6705 69.2672C84.1671 69.5579 83.6195 69.7645 83.0495 69.8787C82.7037 69.9453 82.3533 69.9858 82.0013 70C81.8763 69.9906 81.7598 69.9332 81.6762 69.8398L79.4098 65.9235C79.303 65.7051 79.3564 65.5983 79.5748 65.5983C80.2099 65.9053 80.8729 66.1507 81.5548 66.3311C82.3048 66.5444 83.0804 66.6538 83.86 66.6563C84.5861 66.6617 85.3048 66.5094 85.9662 66.2098C86.2923 66.0532 86.5826 65.831 86.8189 65.5571C87.0552 65.2832 87.2325 64.9635 87.3396 64.618C87.3946 64.4012 87.6373 63.6668 88.0676 62.4147C88.4995 61.1627 90.465 56.1932 91.0619 54.2859C91.1125 54.2151 91.1397 54.1303 91.1397 54.0433C91.1397 53.9563 91.1125 53.8714 91.0619 53.8006C90.5766 52.5065 89.9425 50.8888 89.1595 48.9476C88.3765 47.0064 87.5257 44.9423 86.6068 42.7552C85.6912 40.5519 84.7611 38.2872 83.8163 35.961C82.8716 33.6348 81.9673 31.4315 81.1035 29.3512C80.2397 27.2611 79.4713 25.3846 78.7983 23.7217C78.1238 22.0619 77.6287 20.771 77.3036 19.8393C76.9422 18.9466 76.4797 18.0983 75.9253 17.3108C75.2968 16.4851 74.4186 15.8842 73.4212 15.5977C73.2987 15.5355 73.1886 15.4517 73.096 15.3502V15.2823Z" fill="white"/>
<path d="M136.292 51.8303C136.505 51.9953 136.505 52.1845 136.292 52.4029H130.774C130.708 52.4117 130.641 52.4052 130.578 52.3839C130.515 52.3626 130.458 52.3271 130.411 52.2802C130.364 52.2332 130.329 52.1761 130.308 52.1132C130.286 52.0504 130.28 51.9834 130.289 51.9176V47.4286C130.292 47.381 130.282 47.3334 130.261 47.2907C130.24 47.248 130.207 47.2118 130.167 47.1859C130.09 47.1325 130.022 47.1568 129.968 47.2684C128.559 48.8942 126.875 50.2608 124.994 51.3061C122.979 52.4297 120.705 53.0053 118.399 52.9756C116.782 52.9787 115.169 52.8161 113.585 52.4903C112.072 52.1942 110.613 51.6723 109.256 50.9421C108.02 50.2868 106.954 49.351 106.145 48.2099C105.331 46.9937 104.92 45.5523 104.971 44.0897C104.901 41.7058 105.682 39.375 107.174 37.5139C108.766 35.6191 110.754 34.0952 112.997 33.0491C115.568 31.8285 118.288 30.9507 121.087 30.4382C124.035 29.8736 127.026 29.5603 130.027 29.5015C130.06 29.5064 130.093 29.5036 130.125 29.4931C130.157 29.4826 130.185 29.4649 130.209 29.4413C130.233 29.4177 130.25 29.3889 130.261 29.3573C130.271 29.3256 130.274 29.2919 130.269 29.2589C130.275 27.5557 130.194 25.8533 130.027 24.1584C129.898 22.6773 129.515 21.2294 128.896 19.878C128.305 18.6265 127.345 17.5864 126.144 16.8982C124.902 16.1671 123.176 15.7999 120.966 15.7966C119.077 15.7966 117.567 16.1638 116.438 16.8982C115.349 17.5882 114.423 18.5074 113.725 19.5917C113.061 20.6295 112.545 21.7549 112.192 22.9354C111.894 23.9515 111.529 24.9469 111.1 25.9152C111.053 26.0369 110.979 26.1465 110.884 26.2358C110.789 26.3251 110.675 26.3918 110.55 26.431C110.426 26.4702 110.294 26.4808 110.165 26.462C110.036 26.4433 109.912 26.3957 109.804 26.3228L106.732 24.4447C106.629 24.3976 106.541 24.3236 106.477 24.2304C106.413 24.1373 106.375 24.0285 106.368 23.9157C106.337 23.6774 106.379 23.4353 106.49 23.2217C107.13 22.124 107.904 21.1101 108.795 20.2032C109.784 19.1848 110.898 18.2946 112.109 17.5534C113.398 16.7521 114.784 16.1209 116.234 15.6753C117.767 15.2063 119.363 14.9723 120.966 14.9813C122.532 14.9845 124.092 15.1685 125.615 15.5297C127.214 15.9087 128.733 16.5658 130.104 17.4709C131.626 18.4481 132.864 19.808 133.694 21.4144C134.525 23.0208 134.919 24.8172 134.836 26.6237V50.2821C134.806 50.4908 134.84 50.7035 134.934 50.8924C135.028 51.0812 135.176 51.2373 135.36 51.3401C135.679 51.4873 135.99 51.6509 136.292 51.8303ZM130.303 40.0035V30.5401C130.309 30.5067 130.307 30.4725 130.297 30.4401C130.287 30.4078 130.269 30.3783 130.245 30.3542C130.222 30.33 130.192 30.3118 130.16 30.3011C130.128 30.2904 130.094 30.2875 130.061 30.2926C127.555 30.3459 125.061 30.6615 122.621 31.2341C120.365 31.7358 118.198 32.5734 116.191 33.7188C114.397 34.7462 112.86 36.1684 111.697 37.8778C110.535 39.6728 109.942 41.7773 109.998 43.915C109.962 45.0058 110.147 46.0926 110.543 47.1096C110.94 48.1265 111.538 49.0523 112.303 49.8308C113.843 51.3773 115.88 52.1522 118.413 52.1554C119.904 52.1731 121.376 51.8231 122.699 51.1363C124.013 50.4415 125.191 49.516 126.178 48.404C127.225 47.2292 128.098 45.9103 128.77 44.4876C129.452 43.0583 129.962 41.553 130.289 40.0035H130.303Z" fill="white"/>
<path d="M158.359 16.2624C156.7 16.2602 155.084 16.7892 153.748 17.7717C152.369 18.7561 151.143 19.9384 150.109 21.2804C149.138 22.5303 148.285 23.8674 147.561 25.2745C146.885 26.6107 146.412 27.6039 146.144 28.2542C146.145 28.351 146.132 28.4475 146.105 28.5406C146.076 28.6331 146.063 28.7299 146.066 28.8269V47.3411C146.06 48.2245 146.183 49.104 146.43 49.952C146.569 50.3745 146.806 50.7578 147.123 51.0701C147.439 51.3824 147.826 51.6147 148.25 51.7477C148.343 51.8313 148.401 51.9478 148.41 52.0728C148.41 52.2912 148.328 52.4028 148.167 52.4028H139.51C139.465 52.4087 139.42 52.4041 139.378 52.3895C139.336 52.3748 139.298 52.3505 139.266 52.3184C139.235 52.2863 139.212 52.2474 139.199 52.2048C139.185 52.1621 139.182 52.1169 139.189 52.0728C139.199 51.9478 139.256 51.8313 139.349 51.7477C139.774 51.6147 140.16 51.3824 140.477 51.0701C140.793 50.7578 141.031 50.3745 141.169 49.952C141.417 49.104 141.539 48.2245 141.533 47.3411V5.90124C141.554 5.37302 141.382 4.85529 141.048 4.44534C140.779 4.12019 140.482 3.81974 140.16 3.54754C140.113 3.52625 140.074 3.49207 140.046 3.44905C140.019 3.40604 140.004 3.356 140.004 3.30489C140.004 3.25378 140.019 3.20374 140.046 3.16073C140.074 3.11771 140.113 3.08353 140.16 3.06224L145.581 0.0485081C145.901 -0.0582582 146.066 0.0484998 146.066 0.373652V25.09C146.062 25.138 146.076 25.1858 146.106 25.2237C146.135 25.2616 146.179 25.2867 146.226 25.2939C146.274 25.3094 146.327 25.3053 146.372 25.2826C146.418 25.26 146.452 25.2205 146.469 25.1726C146.957 24.1545 147.497 23.1616 148.085 22.1977C148.823 20.9809 149.707 19.8581 150.715 18.8539C151.792 17.7731 153.018 16.8515 154.355 16.1168C155.783 15.3451 157.386 14.9525 159.009 14.9764C160.776 14.9466 162.533 15.2512 164.187 15.8742C165.617 16.4171 166.922 17.2424 168.026 18.3007C169.072 19.3259 169.887 20.5638 170.414 21.9308C170.959 23.349 171.234 24.8567 171.224 26.3761V47.4236C171.267 48.2956 171.416 49.1592 171.666 49.9957C171.802 50.4017 172.031 50.7709 172.333 51.0746C172.635 51.3784 173.003 51.6087 173.408 51.7477C173.463 51.7803 173.508 51.8285 173.537 51.8863C173.565 51.944 173.576 52.0089 173.568 52.0728C173.568 52.2912 173.486 52.4028 173.325 52.4028H164.672C164.628 52.4085 164.583 52.4038 164.54 52.3892C164.498 52.3745 164.46 52.3503 164.428 52.3183C164.397 52.2864 164.373 52.2476 164.359 52.205C164.345 52.1624 164.341 52.1172 164.347 52.0728C164.357 51.9478 164.414 51.8313 164.507 51.7477C164.943 51.6281 165.343 51.401 165.668 51.0873C165.994 50.7736 166.235 50.3833 166.371 49.952C166.589 49.0991 166.697 48.2216 166.691 47.3411V26.3761C166.693 25.1281 166.488 23.8884 166.085 22.7072C165.696 21.5408 165.108 20.4506 164.347 19.4848C163.619 18.5565 162.728 17.7688 161.717 17.1602C160.701 16.5579 159.539 16.2472 158.359 16.2624Z" fill="white"/>
<path d="M32.0105 23.2168C30.3513 22.7194 28.6454 22.3942 26.9197 22.2462C26.3179 22.1928 25.9491 22.188 25.9491 22.188C35.5192 18.6986 34.8737 11.6084 34.8737 11.6084C34.238 0.252349 22.9402 1.2331e-09 22.9402 1.2331e-09H0.407653C0.356895 -4.06544e-06 0.306637 0.0100506 0.259803 0.0296204C0.212969 0.0491903 0.170484 0.077863 0.134819 0.113979C0.0991542 0.150096 0.0710241 0.192938 0.0520449 0.240014C0.0330657 0.287091 0.0236184 0.337481 0.0242609 0.388235V0.917197C0.0236184 0.967951 0.0330657 1.01834 0.0520449 1.06542C0.0710241 1.11249 0.0991542 1.15534 0.134819 1.19145C0.170484 1.22757 0.212969 1.25624 0.259803 1.27581C0.306637 1.29538 0.356895 1.30547 0.407653 1.30546H0.713395C0.914785 1.3061 1.11408 1.34638 1.29989 1.42403C1.48571 1.50169 1.65441 1.61518 1.79636 1.75803C1.93832 1.90089 2.05074 2.0703 2.12722 2.2566C2.2037 2.44291 2.24273 2.64247 2.24209 2.84386V47.3605C2.24185 47.8861 2.1341 48.4061 1.92545 48.8885C1.7168 49.3709 1.41168 49.8055 1.02884 50.1656L0.407653 50.7091C0.278734 50.8297 0.176013 50.9755 0.10588 51.1374C0.0357474 51.2994 -0.000293568 51.4741 1.80088e-06 51.6506V51.9272H9.5847V51.5341C9.5842 51.2651 9.47785 51.0071 9.28866 50.8159L8.43454 49.9569C7.7235 49.2368 7.3243 48.2658 7.3232 47.2538V3.95519C7.32192 3.5932 7.39196 3.2345 7.52931 2.89957C7.66666 2.56465 7.86862 2.26007 8.12369 2.0032C8.37875 1.74633 8.68192 1.5422 9.01587 1.4025C9.34982 1.26279 9.70801 1.19024 10.07 1.18896H19.7032C20.4476 1.1832 21.1892 1.28122 21.9065 1.48016C26.6382 2.85357 28.0601 8.00261 28.0601 8.00261C29.6325 12.8556 27.6428 16.6507 25.4735 19.1257C23.8633 20.9383 21.7607 22.2434 19.4218 22.8819C7.2601 26.3082 9.14308 39.2948 9.14308 39.2948C11.2493 52.6552 24.2262 52.398 24.2262 52.398C25.292 52.4423 26.3595 52.4049 27.4195 52.2864C29.1235 52.2051 30.8002 51.8274 32.3744 51.1702C35.1389 50.0044 37.4928 48.0405 39.1349 45.5296C40.777 43.0186 41.6328 40.0749 41.5926 37.075C41.5525 34.075 40.6184 31.1552 38.9097 28.6891C37.201 26.223 34.7954 24.3228 32.0008 23.2314L32.0105 23.2168ZM23.5031 51.0731C22.12 51.0736 20.7467 50.8406 19.4412 50.384C14.2484 48.5689 10.5019 43.3762 10.5019 37.2517C10.5019 31.1272 14.2873 25.886 19.514 24.0952C20.7976 23.6539 22.1457 23.4292 23.5031 23.4303C30.6856 23.4303 36.5092 29.6179 36.5092 37.2517C36.5092 44.8855 30.6856 51.0731 23.5031 51.0731Z" fill="white"/>
<path d="M0.970703 55.5865H2.05293V63.3514H0.970703V55.5865ZM1.6113 62.3371H3.71265C4.13802 62.3717 4.56252 62.2605 4.9162 62.0216C5.04344 61.9128 5.1438 61.776 5.20946 61.6219C5.27512 61.4679 5.30431 61.3007 5.29474 61.1335C5.30153 60.8997 5.25506 60.6674 5.15886 60.4541C5.06638 60.2681 4.91669 60.1168 4.73179 60.0222C4.49652 59.9131 4.23868 59.8616 3.97956 59.8718H1.6113V58.9012H3.97956C4.3068 58.9256 4.63114 58.825 4.88709 58.6197C4.99424 58.5101 5.07691 58.379 5.12962 58.2351C5.18233 58.0912 5.20386 57.9378 5.19282 57.7849C5.20597 57.6239 5.18222 57.4619 5.12336 57.3113C5.06449 57.1608 4.97207 57.0257 4.85311 56.9163C4.55713 56.7008 4.19418 56.5976 3.82912 56.6251H1.6113V55.6157H4.03781C4.47109 55.6024 4.90148 55.6905 5.29474 55.8729C5.6169 56.0306 5.88163 56.2851 6.05181 56.6008C6.22479 56.9469 6.30981 57.3303 6.29932 57.717C6.30202 57.9755 6.25077 58.2317 6.14886 58.4692C6.03919 58.7054 5.8724 58.9106 5.66356 59.0661C5.43295 59.2406 5.16295 59.3556 4.87737 59.401C5.17188 59.4377 5.45148 59.5515 5.68783 59.731C5.91283 59.9059 6.09256 60.1323 6.21195 60.391C6.33352 60.6592 6.39481 60.9507 6.39151 61.2451C6.39981 61.6336 6.30433 62.0173 6.1149 62.3565C5.93006 62.677 5.65262 62.9341 5.319 63.0941C4.94433 63.2759 4.53177 63.3657 4.11546 63.3562H1.6113V62.3371Z" fill="white"/>
<path d="M9.19652 63.1378C8.83651 62.9526 8.54558 62.6565 8.36666 62.2934C8.16531 61.8745 8.06714 61.4136 8.08033 60.9491V60.323C8.06703 59.8408 8.16154 59.3616 8.35696 58.9205C8.52335 58.5501 8.8017 58.2412 9.15285 58.0373C9.53644 57.8235 9.97085 57.7178 10.4098 57.7315C10.8316 57.7192 11.2464 57.8416 11.5939 58.081C11.9388 58.3316 12.2008 58.6798 12.3461 59.0807C12.5282 59.5844 12.6154 60.1175 12.6033 60.6531V61.017H8.87138V60.1435H11.5697C11.5616 59.7653 11.4398 59.3983 11.2202 59.0904C11.1254 58.9669 11.0023 58.8681 10.8612 58.8022C10.7202 58.7363 10.5653 58.7053 10.4098 58.7118C10.2274 58.6996 10.0448 58.7301 9.87625 58.8008C9.70775 58.8716 9.55808 58.9807 9.43917 59.1195C9.19525 59.4497 9.07503 59.855 9.09947 60.2648V60.9685C9.08738 61.1601 9.11331 61.3523 9.17577 61.5338C9.23824 61.7154 9.33601 61.8828 9.46345 62.0265C9.60105 62.1544 9.76318 62.253 9.94002 62.3164C10.1169 62.3798 10.3048 62.4066 10.4923 62.3953C10.7174 62.3927 10.9399 62.3466 11.1474 62.2594C11.3635 62.1728 11.5611 62.046 11.7298 61.8857L12.4432 62.5991C12.1777 62.86 11.8647 63.0676 11.5211 63.2106C11.1967 63.3528 10.8465 63.4271 10.4923 63.429C10.043 63.4397 9.59799 63.3398 9.19652 63.1378Z" fill="white"/>
<path d="M14.6657 62.9972C14.3456 62.6585 14.1636 62.2123 14.1556 61.7463C14.1475 61.2803 14.3138 60.8281 14.622 60.4785C15.0248 60.1773 15.5231 60.0325 16.0245 60.0708H17.5969L17.6697 60.9444H16.0294C15.8013 60.9264 15.5747 60.9939 15.3936 61.1337C15.3183 61.2087 15.2602 61.2992 15.2233 61.3989C15.1864 61.4986 15.1717 61.6052 15.1801 61.7112C15.171 61.8307 15.1921 61.9506 15.2412 62.06C15.2904 62.1693 15.3661 62.2646 15.4616 62.3372C15.7183 62.4873 16.0142 62.5567 16.3109 62.5362C16.6269 62.5519 16.9431 62.5074 17.2426 62.4051C17.3314 62.3772 17.409 62.3217 17.464 62.2466C17.5189 62.1715 17.5485 62.0809 17.5484 61.9878L17.66 62.7691C17.5677 62.9131 17.4472 63.0369 17.3057 63.1331C17.1582 63.2341 16.9939 63.308 16.8204 63.3515C16.6174 63.4024 16.4086 63.4269 16.1992 63.4243C15.6536 63.4681 15.1101 63.3168 14.6657 62.9972ZM17.5484 59.833C17.5581 59.68 17.5373 59.5266 17.4873 59.3817C17.4374 59.2368 17.3591 59.1032 17.2572 58.9886C17.1478 58.8843 17.0181 58.8038 16.8761 58.752C16.7341 58.7002 16.583 58.6784 16.4322 58.6877C16.213 58.6876 15.9952 58.722 15.7867 58.7896C15.5848 58.8517 15.3946 58.9468 15.2238 59.0711L14.4279 58.5276C14.6498 58.2641 14.9355 58.0619 15.2578 57.9404C15.6218 57.7948 16.011 57.7222 16.4031 57.7268C16.8095 57.7172 17.2128 57.8002 17.5824 57.9695C17.8959 58.1227 18.1551 58.3683 18.3249 58.6732C18.5056 59.015 18.5943 59.398 18.5821 59.7845V63.3418H17.5484V59.833Z" fill="white"/>
<path d="M21.6543 61.1965C21.6319 61.523 21.7382 61.8453 21.9504 62.0943C22.0574 62.2045 22.1869 62.2902 22.3302 62.3455C22.4735 62.4008 22.627 62.4244 22.7803 62.4147C23.0839 62.4327 23.3822 62.3297 23.6101 62.1283C23.7114 62.0212 23.7895 61.8945 23.8396 61.7559C23.8897 61.6173 23.9107 61.4698 23.9013 61.3227L23.9789 62.4826C23.8604 62.7596 23.6671 62.9982 23.4209 63.1717C23.145 63.3629 22.8148 63.46 22.4794 63.4484C22.2138 63.463 21.9483 63.4174 21.7029 63.3149C21.4575 63.2123 21.2385 63.0555 21.0623 62.8563C20.709 62.378 20.537 61.7898 20.577 61.1965V57.7994H21.6689L21.6543 61.1965ZM23.9013 57.8334H24.9835V63.3658H23.9013V57.8334Z" fill="white"/>
<path d="M26.541 57.7996H29.0403V58.7702H26.5459L26.541 57.7996ZM27.4194 62.9875C27.1926 62.6704 27.0828 62.2845 27.1088 61.8956V56.1981H28.1959V61.915C28.1895 62.0246 28.2184 62.1335 28.2784 62.2256C28.3049 62.262 28.3401 62.2913 28.3808 62.3108C28.4214 62.3303 28.4663 62.3393 28.5113 62.3372H29.0403V63.3709H28.4094C28.227 63.3867 28.0433 63.3613 27.8719 63.2967C27.7006 63.232 27.5459 63.1296 27.4194 62.9972V62.9875Z" fill="white"/>
<path d="M30.8555 55.5865H31.9523V56.6785H30.8652L30.8555 55.5865ZM30.8555 57.8092H31.9523V63.3417H30.8652L30.8555 57.8092Z" fill="white"/>
<path d="M33.4956 57.7996H36.2667V58.7265H33.4956V57.7996ZM34.0828 57.0474C34.0535 56.6505 34.1748 56.2572 34.4225 55.9457C34.561 55.8148 34.7254 55.7142 34.9051 55.6507C35.0849 55.5872 35.2759 55.562 35.4659 55.5769H36.2667V56.6155H35.4853C35.4398 56.6134 35.3945 56.623 35.3537 56.6434C35.3129 56.6637 35.278 56.6942 35.2524 56.7319C35.195 56.8215 35.1662 56.9265 35.1699 57.0328V63.3417H34.0828V57.0474Z" fill="white"/>
<path d="M38.8 61.1965C38.7775 61.523 38.8838 61.8453 39.096 62.0943C39.2043 62.2041 39.3348 62.2895 39.4787 62.3447C39.6227 62.4 39.7768 62.4238 39.9307 62.4147C40.0803 62.4237 40.2302 62.4031 40.3718 62.354C40.5134 62.3048 40.6439 62.2281 40.7557 62.1283C40.8589 62.0223 40.9385 61.8959 40.9895 61.7571C41.0405 61.6183 41.0617 61.4703 41.0518 61.3227L41.1246 62.4826C41.0043 62.7787 40.7959 63.0306 40.5277 63.2042C40.2595 63.3778 39.9443 63.4648 39.625 63.4532C39.36 63.4686 39.0951 63.4232 38.8503 63.3206C38.6056 63.218 38.3875 63.0609 38.2127 62.8611C37.8575 62.3838 37.6853 61.7949 37.7274 61.2014V57.7994H38.8145L38.8 61.1965ZM41.0518 57.8334H42.1437V63.3658H41.0615L41.0518 57.8334Z" fill="white"/>
<path d="M45.2011 61.9148C45.194 62.0253 45.2248 62.1349 45.2885 62.2254C45.3181 62.2621 45.3559 62.2913 45.3989 62.3107C45.4419 62.3301 45.4889 62.3391 45.536 62.337H46.0504V63.3707H45.4098C45.2297 63.383 45.0491 63.355 44.8812 63.2887C44.7133 63.2224 44.5623 63.1194 44.4392 62.9873C44.1953 62.6814 44.0741 62.2955 44.0995 61.9051V55.5962H45.1866L45.2011 61.9148Z" fill="white"/>
<path d="M53.0826 55.5865H54.0095L56.8679 63.3514H55.6983L53.5484 57.0958L51.3986 63.3514H50.2241L53.0826 55.5865ZM51.5441 60.6094H55.6207V61.6431H51.5441V60.6094Z" fill="white"/>
<path d="M58.2651 57.7995H59.3522V63.3319H58.2651V57.7995ZM61.6234 59.9785C61.6447 59.6476 61.5349 59.3216 61.3177 59.071C61.2061 58.9602 61.0722 58.8744 60.925 58.8192C60.7778 58.7639 60.6205 58.7406 60.4636 58.7507C60.3147 58.7417 60.1655 58.7624 60.0247 58.8116C59.8839 58.8607 59.7543 58.9373 59.6434 59.037C59.5425 59.1414 59.4645 59.2656 59.4144 59.4018C59.3642 59.538 59.3431 59.6832 59.3522 59.8281L59.2406 58.7652C59.3922 58.4524 59.6231 58.1846 59.9103 57.9888C60.1805 57.8092 60.4982 57.7145 60.8227 57.717C61.0847 57.7021 61.3467 57.7477 61.5882 57.8504C61.8298 57.953 62.0444 58.11 62.2155 58.3091C62.5695 58.7888 62.7415 59.3788 62.7008 59.9736V63.3319H61.6137L61.6234 59.9785Z" fill="white"/>
<path d="M65.4088 63.1767C65.1177 62.9913 64.8893 62.7224 64.7536 62.405C64.5972 62.0184 64.5212 61.6039 64.5304 61.1869V59.9688C64.5193 59.5505 64.5936 59.1344 64.7488 58.7459C64.8776 58.4288 65.1014 58.1592 65.3894 57.9742C65.6922 57.7925 66.0409 57.7015 66.3939 57.7122C66.7119 57.7083 67.0241 57.7977 67.2917 57.9694C67.5707 58.147 67.7983 58.3947 67.9518 58.6876L67.8401 59.8184C67.846 59.6101 67.8011 59.4035 67.7091 59.2166C67.6301 59.0528 67.5009 58.9185 67.3403 58.8332C67.1568 58.7413 66.9534 58.6963 66.7482 58.7022C66.593 58.6932 66.4378 58.7186 66.2935 58.7765C66.1492 58.8344 66.0195 58.9233 65.9135 59.037C65.6976 59.3125 65.592 59.6585 65.6175 60.0076V61.1966C65.5971 61.5332 65.7026 61.8653 65.9135 62.1284C66.0205 62.2404 66.1506 62.328 66.2947 62.3849C66.4388 62.4419 66.5935 62.467 66.7482 62.4584C66.9538 62.4628 67.1572 62.4161 67.3403 62.3225C67.5004 62.2321 67.6291 62.095 67.7091 61.9294C67.8009 61.739 67.8459 61.5293 67.8401 61.318L67.9129 62.4827C67.8013 62.7596 67.6127 62.9987 67.3694 63.1718C67.1006 63.3625 66.7767 63.4597 66.4473 63.4484C66.0825 63.4573 65.7225 63.3631 65.4088 63.1767ZM67.8353 55.5865H68.9224V63.3514H67.8644L67.8353 55.5865Z" fill="white"/>
<path d="M76.5999 60.1921V63.3417H75.5128V60.1921L73.1494 55.5865H74.3578L76.0564 59.0856L77.7501 55.5865H78.9633L76.5999 60.1921Z" fill="white"/>
<path d="M80.3998 63.1379C80.0591 62.9541 79.7856 62.6669 79.6184 62.3177C79.4281 61.9095 79.3351 61.4626 79.3467 61.0123V60.1096C79.3356 59.6656 79.4287 59.2251 79.6184 58.8236C79.7856 58.4756 80.0593 58.19 80.3998 58.0083C80.7835 57.823 81.204 57.7268 81.63 57.7268C82.0561 57.7268 82.4766 57.823 82.8603 58.0083C83.2008 58.19 83.4745 58.4756 83.6416 58.8236C83.8314 59.2251 83.9245 59.6656 83.9134 60.1096V61.0268C83.9251 61.4741 83.832 61.9178 83.6416 62.3226C83.4731 62.6696 83.1998 62.9548 82.8603 63.1379C82.4775 63.3263 82.0566 63.4243 81.63 63.4243C81.2034 63.4243 80.7825 63.3263 80.3998 63.1379ZM82.5108 62.0314C82.7376 61.7476 82.8502 61.3893 82.8263 61.0268V60.1096C82.8417 59.7586 82.7297 59.4139 82.5108 59.139C82.274 58.9115 81.9584 58.7845 81.63 58.7845C81.3017 58.7845 80.986 58.9115 80.7492 59.139C80.5304 59.4139 80.4184 59.7586 80.4338 60.1096V61.0268C80.4099 61.3893 80.5224 61.7476 80.7492 62.0314C80.9848 62.2611 81.3009 62.3897 81.63 62.3897C81.9591 62.3897 82.2752 62.2611 82.5108 62.0314Z" fill="white"/>
<path d="M86.7427 61.1965C86.7203 61.523 86.8266 61.8453 87.0388 62.0943C87.1469 62.2044 87.2773 62.2899 87.4213 62.3452C87.5653 62.4004 87.7195 62.4241 87.8735 62.4147C88.0231 62.4237 88.173 62.4031 88.3146 62.354C88.4562 62.3048 88.5867 62.2281 88.6985 62.1283C88.7998 62.0212 88.8779 61.8945 88.928 61.7559C88.9781 61.6173 88.9991 61.4698 88.9897 61.3227L89.0673 62.4826C88.949 62.7583 88.7577 62.9966 88.5141 63.1717C88.2361 63.3624 87.9046 63.4593 87.5677 63.4484C87.3022 63.463 87.0367 63.4174 86.7913 63.3149C86.5459 63.2123 86.3268 63.0555 86.1507 62.8563C85.7973 62.378 85.6253 61.7898 85.6654 61.1965V57.7994H86.7524L86.7427 61.1965ZM88.9897 57.8334H90.0719V63.3658H88.9897V57.8334Z" fill="white"/>
<path d="M91.6445 57.7996H94.139V58.7702H91.6445V57.7996ZM92.5278 62.9875C92.297 62.6722 92.1853 62.2854 92.2123 61.8956V56.1981H93.3043V61.915C93.2964 62.0241 93.3237 62.1329 93.3819 62.2256C93.4084 62.262 93.4436 62.2913 93.4843 62.3108C93.525 62.3303 93.5698 62.3393 93.6149 62.3372H94.139V63.3709H93.5081C93.3247 63.3889 93.1397 63.3646 92.9672 63.2998C92.7947 63.235 92.6394 63.1315 92.5132 62.9972L92.5278 62.9875Z" fill="white"/>
<path d="M95.9443 55.5865H97.0314V63.3514H95.9443V55.5865ZM99.3026 59.9882C99.3258 59.6579 99.2177 59.3318 99.0017 59.0807C98.8896 58.9707 98.7557 58.8854 98.6086 58.8302C98.4615 58.775 98.3045 58.7513 98.1476 58.7604C97.8471 58.7415 97.551 58.8408 97.3226 59.037C97.2221 59.1406 97.1443 59.2641 97.0941 59.3994C97.044 59.5348 97.0226 59.6791 97.0314 59.8232L96.9198 58.7555C97.0745 58.45 97.3051 58.1893 97.5895 57.9985C97.8617 57.8193 98.1809 57.7247 98.5067 57.7267C98.7687 57.7129 99.0303 57.759 99.2716 57.8616C99.513 57.9642 99.7278 58.1206 99.8996 58.3188C100.254 58.7985 100.426 59.3885 100.385 59.9834V63.3417H99.2929L99.3026 59.9882Z" fill="white"/>
<path d="M101.947 57.7995H104.713V58.7265H101.947V57.7995ZM102.534 57.0473C102.503 56.6502 102.624 56.256 102.874 55.9457C103.012 55.8148 103.175 55.7144 103.354 55.6508C103.533 55.5873 103.723 55.5621 103.913 55.5769H104.713V56.6154H103.937C103.891 56.6129 103.845 56.6223 103.803 56.6427C103.761 56.6631 103.726 56.6938 103.699 56.7319C103.644 56.822 103.616 56.9269 103.622 57.0328V63.3417H102.534V57.0473Z" fill="white"/>
<path d="M107.252 61.1965C107.229 61.523 107.335 61.8453 107.548 62.0943C107.656 62.2044 107.786 62.2899 107.93 62.3452C108.074 62.4004 108.228 62.4241 108.382 62.4147C108.532 62.4237 108.682 62.4031 108.823 62.354C108.965 62.3048 109.095 62.2281 109.207 62.1283C109.309 62.0212 109.387 61.8945 109.437 61.7559C109.487 61.6173 109.508 61.4698 109.498 61.3227L109.576 62.4826C109.458 62.7583 109.267 62.9966 109.023 63.1717C108.745 63.3624 108.413 63.4593 108.077 63.4484C107.811 63.463 107.546 63.4174 107.3 63.3149C107.055 63.2123 106.836 63.0555 106.659 62.8563C106.306 62.378 106.134 61.7898 106.174 61.1965V57.7994H107.266L107.252 61.1965ZM109.498 57.8334H110.571V63.3658H109.489L109.498 57.8334Z" fill="white"/>
<path d="M113.653 61.9148C113.646 62.0253 113.676 62.1349 113.74 62.2254C113.77 62.2621 113.808 62.2913 113.851 62.3107C113.894 62.3301 113.94 62.3391 113.988 62.337H114.497V63.3707H113.861C113.681 63.3817 113.501 63.353 113.334 63.2868C113.166 63.2205 113.015 63.1183 112.891 62.9873C112.649 62.6803 112.528 62.2953 112.551 61.9051V55.5962H113.643L113.653 61.9148Z" fill="white"/>
<path d="M121.534 55.5865H122.461L125.32 63.3514H124.16L122.01 57.0958L119.86 63.3514H118.676L121.534 55.5865ZM119.991 60.6094H124.072V61.6431H119.991V60.6094Z" fill="white"/>
<path d="M126.712 57.7996H127.799V63.3321H126.712V57.7996ZM130.071 59.9786C130.094 59.6483 129.986 59.3222 129.77 59.0711C129.538 58.8706 129.243 58.7574 128.936 58.7512C128.63 58.745 128.331 58.8461 128.091 59.0371C127.99 59.1415 127.912 59.2657 127.862 59.4019C127.811 59.5381 127.79 59.6833 127.799 59.8282L127.688 58.7654C127.839 58.4525 128.07 58.1848 128.358 57.9889C128.63 57.8097 128.949 57.7152 129.275 57.7171C129.537 57.7033 129.798 57.7494 130.04 57.852C130.281 57.9546 130.496 58.111 130.668 58.3092C131.022 58.7889 131.194 59.3789 131.153 59.9738V63.3321H130.061L130.071 59.9786Z" fill="white"/>
<path d="M133.865 63.1767C133.574 62.9913 133.346 62.7224 133.21 62.405C133.051 62.0191 132.975 61.6041 132.987 61.1869V59.9688C132.976 59.5505 133.05 59.1344 133.205 58.7459C133.334 58.4301 133.556 58.1609 133.841 57.9742C134.144 57.7937 134.493 57.7029 134.846 57.7122C135.164 57.7077 135.476 57.7971 135.743 57.9694C136.025 58.1443 136.253 58.3926 136.403 58.6876L136.292 59.8184C136.297 59.6107 136.254 59.4047 136.166 59.2166C136.085 59.0524 135.954 58.9182 135.792 58.8332C135.61 58.7407 135.408 58.6956 135.205 58.7022C135.05 58.6932 134.894 58.7186 134.75 58.7765C134.606 58.8344 134.476 58.9233 134.37 59.037C134.152 59.3114 134.046 59.6583 134.074 60.0076V61.1966C134.051 61.5335 134.157 61.8664 134.37 62.1284C134.477 62.2404 134.607 62.328 134.751 62.3849C134.895 62.4419 135.05 62.467 135.205 62.4584C135.409 62.4634 135.611 62.4167 135.792 62.3225C135.954 62.2324 136.084 62.0953 136.166 61.9294C136.254 61.7378 136.297 61.5287 136.292 61.318L136.365 62.4827C136.252 62.7753 136.052 63.0257 135.791 63.1996C135.53 63.3734 135.222 63.4621 134.909 63.4533C134.542 63.4616 134.18 63.3657 133.865 63.1767ZM136.292 55.5865H137.379V63.3514H136.292V55.5865Z" fill="white"/>
<path d="M142.722 55.5865H143.809V63.3514H142.722V55.5865ZM143.402 58.9837H147.706V60.0174H143.402V58.9837ZM147.129 55.5865H148.216V63.3514H147.129V55.5865Z" fill="white"/>
<path d="M150.599 62.9972C150.279 62.6585 150.097 62.2123 150.089 61.7463C150.081 61.2803 150.247 60.8281 150.555 60.4785C150.957 60.1765 151.456 60.0316 151.958 60.0708H153.53L153.603 60.9444H151.962C151.734 60.9264 151.508 60.9939 151.327 61.1337C151.251 61.2087 151.193 61.2992 151.156 61.3989C151.12 61.4986 151.105 61.6052 151.113 61.7112C151.104 61.8307 151.125 61.9506 151.174 62.06C151.224 62.1693 151.299 62.2646 151.395 62.3372C151.651 62.4873 151.947 62.5567 152.244 62.5362C152.56 62.5519 152.876 62.5074 153.176 62.4051C153.265 62.3772 153.342 62.3217 153.397 62.2466C153.452 62.1715 153.482 62.0809 153.481 61.9878L153.593 62.7691C153.501 62.9131 153.38 63.0369 153.239 63.1331C153.091 63.2337 152.927 63.3076 152.754 63.3515C152.549 63.4022 152.338 63.4266 152.127 63.4243C151.583 63.467 151.042 63.3157 150.599 62.9972ZM153.481 59.833C153.491 59.68 153.47 59.5266 153.42 59.3817C153.37 59.2368 153.292 59.1032 153.19 58.9886C153.081 58.8843 152.951 58.8038 152.809 58.752C152.667 58.7002 152.516 58.6784 152.365 58.6877C152.146 58.6876 151.928 58.722 151.72 58.7896C151.518 58.8517 151.328 58.9468 151.157 59.0711L150.366 58.5276C150.588 58.2641 150.873 58.0619 151.196 57.9404C151.56 57.7948 151.949 57.7222 152.341 57.7268C152.747 57.7172 153.151 57.8002 153.52 57.9695C153.828 58.1251 154.082 58.3704 154.248 58.6732C154.429 59.015 154.518 59.398 154.505 59.7845V63.3418H153.472L153.481 59.833Z" fill="white"/>
<path d="M156.495 57.7996H157.587V65.5644H156.495V57.7996ZM158.077 63.167C157.818 62.9987 157.619 62.7522 157.509 62.4633L157.587 61.3083C157.58 61.5177 157.623 61.7258 157.713 61.9149C157.794 62.0778 157.922 62.2117 158.082 62.2983C158.265 62.3919 158.469 62.4386 158.674 62.4342C158.829 62.4428 158.984 62.4177 159.128 62.3607C159.272 62.3037 159.402 62.2162 159.509 62.1042C159.719 61.8426 159.824 61.5123 159.805 61.1773V59.9786C159.824 59.6391 159.719 59.3043 159.509 59.0371C159.404 58.9217 159.274 58.8313 159.13 58.7725C158.986 58.7137 158.83 58.688 158.674 58.6974C158.469 58.6915 158.266 58.7365 158.082 58.8284C157.922 58.9101 157.793 59.0411 157.713 59.2021C157.623 59.3878 157.58 59.5927 157.587 59.799L157.471 58.7313C157.622 58.4318 157.85 58.1774 158.131 57.9937C158.396 57.8156 158.709 57.7225 159.028 57.7268C159.382 57.7153 159.732 57.8082 160.033 57.9937C160.321 58.1767 160.545 58.4446 160.674 58.7605C160.828 59.1492 160.903 59.5652 160.892 59.9834V61.1967C160.901 61.6105 160.825 62.0219 160.669 62.4051C160.533 62.7198 160.304 62.9856 160.014 63.167C159.699 63.3517 159.339 63.4442 158.975 63.4339C158.657 63.439 158.344 63.3495 158.077 63.1767V63.167Z" fill="white"/>
<path d="M162.765 57.7995H163.852V65.5643H162.765V57.7995ZM164.342 63.1669C164.086 62.9966 163.889 62.7506 163.779 62.4632L163.852 61.3082C163.846 61.518 163.891 61.7262 163.983 61.9148C164.064 62.0777 164.192 62.2117 164.352 62.2983C164.533 62.3918 164.735 62.4385 164.939 62.4341C165.094 62.4433 165.249 62.4186 165.393 62.3616C165.537 62.3046 165.667 62.2167 165.774 62.1041C165.986 61.8436 166.092 61.5125 166.07 61.1772V59.9785C166.092 59.6388 165.986 59.3031 165.774 59.037C165.669 58.9213 165.54 58.8307 165.395 58.7719C165.251 58.7131 165.095 58.6876 164.939 58.6973C164.736 58.6914 164.534 58.7364 164.352 58.8283C164.192 58.91 164.063 59.041 163.983 59.202C163.891 59.3873 163.846 59.5922 163.852 59.7989L163.741 58.7313C163.89 58.4295 164.116 58.172 164.396 57.9839C164.663 57.8065 164.978 57.7135 165.298 57.717C165.652 57.7056 166.002 57.7984 166.303 57.9839C166.589 58.1672 166.812 58.4352 166.939 58.7507C167.093 59.1394 167.168 59.5554 167.157 59.9736V61.1966C167.169 61.6106 167.093 62.0225 166.934 62.405C166.801 62.7216 166.572 62.9883 166.279 63.1669C165.967 63.3525 165.608 63.4451 165.245 63.4338C164.925 63.4381 164.612 63.3487 164.342 63.1766V63.1669Z" fill="white"/>
<path d="M168.235 57.7994H169.341L171.045 62.6088L170.443 63.7881L168.235 57.7994ZM173.136 57.7994L170.778 64.6276C170.708 64.8487 170.594 65.0533 170.443 65.2294C170.301 65.3769 170.124 65.4855 169.929 65.5449C169.686 65.6142 169.434 65.6469 169.181 65.6419H168.963V64.5937H169.181C169.352 64.6017 169.521 64.5577 169.667 64.4675C169.806 64.3592 169.913 64.2149 169.977 64.0501L172.025 57.7994H173.136Z" fill="white"/>
</svg>
