<svg width="20" height="20" viewBox="0 0 20 20" fill="none" xmlns="http://www.w3.org/2000/svg">
<path fill-rule="evenodd" clip-rule="evenodd" d="M9.98413 0.000640482C10.7309 -0.0105711 11.4726 0.125512 12.1658 0.400972C12.8591 0.676432 13.4901 1.08577 14.0222 1.60516C14.5544 2.12455 14.9769 2.74363 15.2654 3.42637C15.5538 4.10912 15.7024 4.84189 15.7024 5.58205C15.7024 6.32221 15.5538 7.05498 15.2654 7.73772C14.9769 8.42046 14.5544 9.03954 14.0222 9.55893C13.4901 10.0783 12.8591 10.4877 12.1658 10.7631C11.4726 11.0386 10.7309 11.1747 9.98413 11.1634C8.50514 11.1412 7.0943 10.5434 6.05633 9.49914C5.01835 8.45484 4.43654 7.04785 4.43654 5.58205C4.43654 4.11624 5.01835 2.70925 6.05633 1.66495C7.0943 0.62065 8.50514 0.022844 9.98413 0.000640482ZM11.3833 2.33493C10.9488 2.16229 10.484 2.077 10.016 2.08403C9.08905 2.09795 8.20485 2.47261 7.55432 3.1271C6.9038 3.78159 6.53916 4.66339 6.53916 5.58205C6.53916 6.5007 6.9038 7.3825 7.55432 8.03699C8.20485 8.69148 9.08905 9.06614 10.016 9.08006C10.484 9.08709 10.9488 9.0018 11.3833 8.82916C11.8178 8.65652 12.2133 8.39998 12.5468 8.07446C12.8803 7.74895 13.1451 7.36095 13.3259 6.93306C13.5067 6.50517 13.5997 6.04592 13.5997 5.58205C13.5997 5.11817 13.5067 4.65892 13.3259 4.23103C13.1451 3.80314 12.8803 3.41515 12.5468 3.08963C12.2133 2.76411 11.8178 2.50757 11.3833 2.33493ZM3.17495 15.4626C2.47959 16.2804 2.10262 17.4768 2.10262 18.9188C2.10262 19.4942 1.63193 19.9607 1.05131 19.9607C0.470687 19.9607 0 19.4942 0 18.9188C0 17.1469 0.460926 15.4209 1.56698 14.12C2.69684 12.7911 4.39284 12.0324 6.5812 12.0324H13.4179C15.6066 12.0324 17.3029 12.791 18.4329 14.12C19.5392 15.4209 20.0001 17.1469 20.0001 18.9188C20.0001 19.4942 19.5294 19.9607 18.9488 19.9607C18.3682 19.9607 17.8975 19.4942 17.8975 18.9188C17.8975 17.4768 17.5205 16.2805 16.8251 15.4626C16.1534 14.6728 15.0842 14.1161 13.4179 14.1161H6.5812C4.91545 14.1161 3.84651 14.6727 3.17495 15.4626Z" fill="#FDE4E7"/>
</svg>
