<svg width="19" height="19" viewBox="0 0 19 19" fill="none" xmlns="http://www.w3.org/2000/svg">
<path fill-rule="evenodd" clip-rule="evenodd" d="M2.42496 2.40306C3.97764 0.864406 6.08352 6.17189e-08 8.27933 0C9.36659 0 10.4432 0.212217 11.4477 0.624535C12.4522 1.03685 13.3649 1.6412 14.1337 2.40306C14.9025 3.16492 15.5124 4.06939 15.9284 5.06481C16.3445 6.06023 16.5587 7.12712 16.5587 8.20456C16.5587 9.282 16.3445 10.3489 15.9284 11.3443C15.6386 12.0378 15.2546 12.6872 14.7884 13.2749L18.694 17.1453C19.1021 17.5496 19.1021 18.2053 18.694 18.6096C18.286 19.014 17.6244 19.014 17.2163 18.6096L13.2998 14.7286C12.7323 15.1574 12.11 15.5127 11.4477 15.7846C10.4432 16.1969 9.36659 16.4091 8.27933 16.4091C6.08352 16.4091 3.97764 15.5447 2.42496 14.0061C0.872284 12.4674 0 10.3805 0 8.20456C0 6.02858 0.872284 3.94171 2.42496 2.40306ZM8.27933 2.07094C6.63777 2.07094 5.06344 2.71716 3.90268 3.86744C2.74192 5.01772 2.08982 6.57783 2.08982 8.20456C2.08982 9.8313 2.74192 11.3914 3.90268 12.5417C5.06344 13.692 6.63777 14.3382 8.27933 14.3382C9.09215 14.3382 9.89701 14.1795 10.648 13.8713C11.3989 13.563 12.0812 13.1112 12.656 12.5417C13.2307 11.9721 13.6866 11.296 13.9977 10.5518C14.3087 9.80763 14.4688 9.01004 14.4688 8.20456C14.4688 7.39908 14.3087 6.60149 13.9977 5.85733C13.6866 5.11316 13.2307 4.437 12.656 3.86744C12.0812 3.29788 11.3989 2.84608 10.648 2.53784C9.89701 2.22959 9.09215 2.07094 8.27933 2.07094Z" fill="#FDE4E7"/>
</svg>
